<svg width="1427" height="372" viewBox="0 0 1427 372" fill="none" xmlns="http://www.w3.org/2000/svg">
<g opacity="0.6" clip-path="url(#clip0_1_31)">
<mask id="mask0_1_31" style="mask-type:luminance" maskUnits="userSpaceOnUse" x="-46" y="-96" width="1315" height="456">
<path d="M1269 -96H-46V360H1269V-96Z" fill="black"/>
<path d="M248.145 345.969C336.06 345.969 407.329 273.729 407.329 184.615C407.329 95.5021 336.06 23.2615 248.145 23.2615C160.23 23.2615 88.9605 95.5021 88.9605 184.615C88.9605 273.729 160.23 345.969 248.145 345.969Z" fill="white"/>
<path d="M248.145 286.338C303.569 286.338 348.5 240.796 348.5 184.615C348.5 128.435 303.569 82.8923 248.145 82.8923C192.72 82.8923 147.789 128.435 147.789 184.615C147.789 240.796 192.72 286.338 248.145 286.338Z" fill="black"/>
</mask>
<g mask="url(#mask0_1_31)">
<path d="M441.934 -11.8154H54.3553V381.046H441.934V-11.8154Z" fill="url(#paint0_radial_1_31)"/>
<path d="M441.934 -11.8154H54.3553V381.046H441.934V-11.8154Z" fill="url(#paint1_linear_1_31)"/>
<g filter="url(#filter0_f_1_31)">
<path d="M187.612 132.409C231.262 112.711 256.563 73.787 244.126 45.4708C231.688 17.1546 186.221 10.1688 142.572 29.8675C98.9226 49.5662 73.6208 88.49 86.0584 116.806C98.4961 145.122 143.963 152.108 187.612 132.409Z" fill="url(#paint2_radial_1_31)"/>
</g>
<g filter="url(#filter1_f_1_31)">
<path d="M304.069 280.101C335.496 265.918 355.302 241.509 348.306 225.581C341.309 209.653 310.161 208.239 278.734 222.422C247.306 236.605 227.501 261.014 234.497 276.942C241.493 292.87 272.642 294.285 304.069 280.101Z" fill="#D9FFF5" fill-opacity="0.12"/>
</g>
<g filter="url(#filter2_f_1_31)">
<path d="M302.822 90.7173C320.999 96.7037 338.367 93.342 341.616 83.2086C344.864 73.0752 332.762 60.0076 314.585 54.0212C296.409 48.0347 279.041 51.3965 275.792 61.5299C272.544 71.6632 284.646 84.7309 302.822 90.7173Z" fill="#F3FFF9" fill-opacity="0.16"/>
</g>
<g filter="url(#filter3_f_1_31)">
<path d="M121.321 252.517C142.82 247.885 158.154 234.145 155.571 221.829C152.988 209.512 133.467 203.282 111.968 207.914C90.4696 212.546 75.1355 226.285 77.7183 238.602C80.3012 250.919 99.8229 257.149 121.321 252.517Z" fill="white" fill-opacity="0.09"/>
</g>
<g filter="url(#filter4_f_1_31)">
<path d="M101.072 156.554C135.678 132 170.283 133.754 201.428 154.8C220.461 168.831 237.763 168.831 265.447 154.8C296.592 139.015 334.658 142.523 370.993 170.585" stroke="#F2FFF9" stroke-opacity="0.12" stroke-width="18" stroke-linecap="round"/>
</g>
</g>
<path d="M248.145 345.969C336.06 345.969 407.329 273.729 407.329 184.615C407.329 95.5021 336.06 23.2615 248.145 23.2615C160.23 23.2615 88.9605 95.5021 88.9605 184.615C88.9605 273.729 160.23 345.969 248.145 345.969Z" stroke="url(#paint3_linear_1_31)" stroke-width="40"/>
<path d="M248.145 286.338C303.569 286.338 348.5 240.796 348.5 184.615C348.5 128.435 303.569 82.8923 248.145 82.8923C192.72 82.8923 147.789 128.435 147.789 184.615C147.789 240.796 192.72 286.338 248.145 286.338Z" stroke="#F6FFFC" stroke-opacity="0.18" stroke-width="4"/>
<path d="M169.696 86.7892C194.139 75.7579 211.119 60.3593 207.621 52.3953C204.123 44.4314 181.471 46.918 157.028 57.9493C132.584 68.9806 115.605 84.3792 119.103 92.3431C122.601 100.307 145.252 97.8205 169.696 86.7892Z" fill="white" fill-opacity="0.68"/>
<path d="M211.164 55.9781C221.64 51.2504 228.871 44.5485 227.317 41.009C225.762 37.4695 216.009 38.4327 205.534 43.1604C195.058 47.8881 187.826 54.59 189.381 58.1295C190.935 61.669 200.688 60.7058 211.164 55.9781Z" fill="white" fill-opacity="0.52"/>
<path d="M329.525 276.811C346.985 268.932 359.563 258.957 357.62 254.533C355.677 250.109 339.947 252.909 322.488 260.789C305.028 268.668 292.45 278.643 294.393 283.067C296.336 287.491 312.066 284.691 329.525 276.811Z" fill="white" fill-opacity="0.16"/>
<path d="M159.312 123.296H175.044V125.964H160.14L159.312 123.296ZM172.008 123.296H170.996L176.148 117.96L185.348 125.78C184.857 126.516 183.723 126.976 181.944 127.16C180.963 132.619 179.491 138.108 177.528 143.628C175.565 149.087 172.836 154.269 169.34 159.176C165.844 164.021 161.367 168.284 155.908 171.964L154.988 170.952C158.607 166.904 161.581 162.243 163.912 156.968C166.243 151.632 168.052 146.081 169.34 140.316C170.628 134.489 171.517 128.816 172.008 123.296ZM194.548 114.188C195.591 121.241 197.063 127.405 198.964 132.68C200.865 137.955 203.135 142.493 205.772 146.296C208.409 150.037 211.261 153.227 214.328 155.864C217.395 158.501 220.584 160.74 223.896 162.58L223.436 163.592C221.167 164.021 219.173 165.217 217.456 167.18C215.8 169.143 214.573 171.443 213.776 174.08C210.771 170.952 208.164 167.579 205.956 163.96C203.748 160.28 201.847 156.14 200.252 151.54C198.657 146.94 197.339 141.604 196.296 135.532C195.253 129.46 194.425 122.437 193.812 114.464L194.548 114.188ZM194.64 101.952V170.308C194.64 172.761 194.333 174.847 193.72 176.564C193.107 178.343 191.788 179.753 189.764 180.796C187.801 181.839 184.735 182.544 180.564 182.912C180.38 181.256 180.104 179.815 179.736 178.588C179.368 177.423 178.785 176.441 177.988 175.644C177.191 174.785 176.117 174.08 174.768 173.528C173.48 172.915 171.548 172.424 168.972 172.056V170.676C168.972 170.676 169.524 170.737 170.628 170.86C171.793 170.921 173.143 171.013 174.676 171.136C176.271 171.197 177.773 171.259 179.184 171.32C180.656 171.381 181.668 171.412 182.22 171.412C183.079 171.412 183.631 171.259 183.876 170.952C184.183 170.645 184.336 170.185 184.336 169.572V98.088L197.86 99.468C197.799 100.081 197.553 100.603 197.124 101.032C196.695 101.461 195.867 101.768 194.64 101.952ZM210.188 112.9L222.424 120.812C222.117 121.241 221.719 121.579 221.228 121.824C220.737 122.008 219.94 122.008 218.836 121.824C217.119 123.112 215.125 124.553 212.856 126.148C210.587 127.743 208.195 129.307 205.68 130.84C203.165 132.373 200.62 133.784 198.044 135.072L197.216 134.152C198.811 132.128 200.436 129.828 202.092 127.252C203.809 124.615 205.373 122.039 206.784 119.524C208.195 116.948 209.329 114.74 210.188 112.9ZM138.888 102.596C143.304 103.455 146.8 104.651 149.376 106.184C152.013 107.717 153.884 109.373 154.988 111.152C156.092 112.869 156.583 114.525 156.46 116.12C156.399 117.715 155.908 119.033 154.988 120.076C154.068 121.119 152.872 121.701 151.4 121.824C149.928 121.885 148.364 121.303 146.708 120.076C146.401 118.113 145.788 116.12 144.868 114.096C144.009 112.011 142.967 110.048 141.74 108.208C140.575 106.307 139.348 104.62 138.06 103.148L138.888 102.596ZM140.084 152.552C140.82 152.552 141.341 152.491 141.648 152.368C141.955 152.184 142.384 151.632 142.936 150.712C143.365 150.037 143.764 149.393 144.132 148.78C144.5 148.105 145.021 147.124 145.696 145.836C146.371 144.548 147.321 142.647 148.548 140.132C149.836 137.617 151.584 134.183 153.792 129.828C156 125.412 158.852 119.739 162.348 112.808L163.82 113.268C163.084 115.353 162.225 117.745 161.244 120.444C160.263 123.081 159.281 125.811 158.3 128.632C157.319 131.392 156.368 134.091 155.448 136.728C154.589 139.304 153.823 141.573 153.148 143.536C152.535 145.437 152.075 146.848 151.768 147.768C151.4 149.179 151.063 150.62 150.756 152.092C150.449 153.564 150.327 154.883 150.388 156.048C150.449 157.581 150.787 159.053 151.4 160.464C152.013 161.875 152.596 163.439 153.148 165.156C153.7 166.873 153.915 168.989 153.792 171.504C153.731 173.773 153.025 175.552 151.676 176.84C150.327 178.189 148.548 178.864 146.34 178.864C145.236 178.864 144.224 178.496 143.304 177.76C142.445 177.024 141.863 175.859 141.556 174.264C142.108 171.136 142.415 168.253 142.476 165.616C142.537 162.979 142.415 160.801 142.108 159.084C141.801 157.305 141.28 156.171 140.544 155.68C139.931 155.251 139.256 154.944 138.52 154.76C137.784 154.515 136.895 154.361 135.852 154.3V152.552C135.852 152.552 136.128 152.552 136.68 152.552C137.232 152.552 137.845 152.552 138.52 152.552C139.256 152.552 139.777 152.552 140.084 152.552Z" fill="#5EB79C" fill-opacity="0.95"/>
<path d="M226.907 177.665H242.639V180.333H227.735L226.907 177.665ZM239.603 177.665H238.591L243.743 172.329L252.943 180.149C252.452 180.885 251.317 181.345 249.539 181.529C248.557 186.988 247.085 192.477 245.123 197.997C243.16 203.456 240.431 208.639 236.935 213.545C233.439 218.391 228.961 222.653 223.503 226.333L222.583 225.321C226.201 221.273 229.176 216.612 231.507 211.337C233.837 206.001 235.647 200.451 236.935 194.685C238.223 188.859 239.112 183.185 239.603 177.665ZM262.143 168.557C263.185 175.611 264.657 181.775 266.559 187.049C268.46 192.324 270.729 196.863 273.367 200.665C276.004 204.407 278.856 207.596 281.923 210.233C284.989 212.871 288.179 215.109 291.491 216.949L291.031 217.961C288.761 218.391 286.768 219.587 285.051 221.549C283.395 223.512 282.168 225.812 281.371 228.449C278.365 225.321 275.759 221.948 273.551 218.329C271.343 214.649 269.441 210.509 267.847 205.909C266.252 201.309 264.933 195.973 263.891 189.901C262.848 183.829 262.02 176.807 261.407 168.833L262.143 168.557ZM262.235 156.321V224.677C262.235 227.131 261.928 229.216 261.315 230.933C260.701 232.712 259.383 234.123 257.359 235.165C255.396 236.208 252.329 236.913 248.159 237.281C247.975 235.625 247.699 234.184 247.331 232.957C246.963 231.792 246.38 230.811 245.583 230.013C244.785 229.155 243.712 228.449 242.363 227.897C241.075 227.284 239.143 226.793 236.567 226.425V225.045C236.567 225.045 237.119 225.107 238.223 225.229C239.388 225.291 240.737 225.383 242.271 225.505C243.865 225.567 245.368 225.628 246.779 225.689C248.251 225.751 249.263 225.781 249.815 225.781C250.673 225.781 251.225 225.628 251.471 225.321C251.777 225.015 251.931 224.555 251.931 223.941V152.457L265.455 153.837C265.393 154.451 265.148 154.972 264.719 155.401C264.289 155.831 263.461 156.137 262.235 156.321ZM277.783 167.269L290.019 175.181C289.712 175.611 289.313 175.948 288.823 176.193C288.332 176.377 287.535 176.377 286.431 176.193C284.713 177.481 282.72 178.923 280.451 180.517C278.181 182.112 275.789 183.676 273.275 185.209C270.76 186.743 268.215 188.153 265.639 189.441L264.811 188.521C266.405 186.497 268.031 184.197 269.687 181.621C271.404 178.984 272.968 176.408 274.379 173.893C275.789 171.317 276.924 169.109 277.783 167.269ZM206.483 156.965C210.899 157.824 214.395 159.02 216.971 160.553C219.608 162.087 221.479 163.743 222.583 165.521C223.687 167.239 224.177 168.895 224.055 170.489C223.993 172.084 223.503 173.403 222.583 174.445C221.663 175.488 220.467 176.071 218.995 176.193C217.523 176.255 215.959 175.672 214.303 174.445C213.996 172.483 213.383 170.489 212.463 168.465C211.604 166.38 210.561 164.417 209.335 162.577C208.169 160.676 206.943 158.989 205.655 157.517L206.483 156.965ZM207.679 206.921C208.415 206.921 208.936 206.86 209.243 206.737C209.549 206.553 209.979 206.001 210.531 205.081C210.96 204.407 211.359 203.763 211.727 203.149C212.095 202.475 212.616 201.493 213.291 200.205C213.965 198.917 214.916 197.016 216.143 194.501C217.431 191.987 219.179 188.552 221.387 184.197C223.595 179.781 226.447 174.108 229.943 167.177L231.415 167.637C230.679 169.723 229.82 172.115 228.839 174.813C227.857 177.451 226.876 180.18 225.895 183.001C224.913 185.761 223.963 188.46 223.043 191.097C222.184 193.673 221.417 195.943 220.743 197.905C220.129 199.807 219.669 201.217 219.363 202.137C218.995 203.548 218.657 204.989 218.351 206.461C218.044 207.933 217.921 209.252 217.983 210.417C218.044 211.951 218.381 213.423 218.995 214.833C219.608 216.244 220.191 217.808 220.743 219.525C221.295 221.243 221.509 223.359 221.387 225.873C221.325 228.143 220.62 229.921 219.271 231.209C217.921 232.559 216.143 233.233 213.935 233.233C212.831 233.233 211.819 232.865 210.899 232.129C210.04 231.393 209.457 230.228 209.151 228.633C209.703 225.505 210.009 222.623 210.071 219.985C210.132 217.348 210.009 215.171 209.703 213.453C209.396 211.675 208.875 210.54 208.139 210.049C207.525 209.62 206.851 209.313 206.115 209.129C205.379 208.884 204.489 208.731 203.447 208.669V206.921C203.447 206.921 203.723 206.921 204.275 206.921C204.827 206.921 205.44 206.921 206.115 206.921C206.851 206.921 207.372 206.921 207.679 206.921Z" fill="#4DB497" fill-opacity="0.72"/>
<path d="M456.504 160V85.184H492.904C498.952 85.184 503.992 85.856 508.024 87.2C512.131 88.544 515.192 90.6347 517.208 93.472C519.299 96.2347 520.344 99.8933 520.344 104.448C520.344 108.629 519.411 112.176 517.544 115.088C515.677 117.925 512.616 120.053 508.36 121.472C513.363 122.741 516.984 124.907 519.224 127.968C521.464 131.029 522.584 134.912 522.584 139.616C522.584 146.635 520.195 151.787 515.416 155.072C510.637 158.357 503.096 160 492.792 160H456.504ZM472.856 146.896H490.888C494.621 146.896 497.571 146.597 499.736 146C501.976 145.328 503.581 144.283 504.552 142.864C505.523 141.445 506.008 139.579 506.008 137.264C506.008 134.949 505.523 133.083 504.552 131.664C503.581 130.245 501.976 129.237 499.736 128.64C497.571 127.968 494.621 127.632 490.888 127.632H472.856V146.896ZM472.856 115.312H490.888C495.741 115.312 499.101 114.677 500.968 113.408C502.835 112.064 503.768 109.861 503.768 106.8C503.768 103.813 502.835 101.648 500.968 100.304C499.176 98.96 495.816 98.288 490.888 98.288H472.856V115.312Z" fill="#AFE1D2" fill-opacity="0.7"/>
<path d="M533.486 160V107.36H548.942V160H533.486ZM541.214 99.296C538.451 99.296 536.286 98.512 534.718 96.944C533.15 95.3013 532.366 93.248 532.366 90.784C532.366 88.32 533.15 86.304 534.718 84.736C536.286 83.168 538.451 82.384 541.214 82.384C543.902 82.384 546.03 83.2053 547.598 84.848C549.24 86.416 550.062 88.432 550.062 90.896C550.062 93.36 549.24 95.376 547.598 96.944C546.03 98.512 543.902 99.296 541.214 99.296Z" fill="#AFE1D2" fill-opacity="0.7"/>
<path d="M562.361 160V107.36H577.033V113.744C578.675 111.429 580.841 109.6 583.529 108.256C586.217 106.912 589.577 106.24 593.609 106.24C599.507 106.24 604.174 107.957 607.609 111.392C611.043 114.752 612.761 119.979 612.761 127.072V160H597.305V129.424C597.305 126.139 596.595 123.712 595.177 122.144C593.833 120.501 591.705 119.68 588.793 119.68C585.433 119.68 582.745 120.8 580.729 123.04C578.787 125.205 577.817 128.379 577.817 132.56V160H562.361Z" fill="#AFE1D2" fill-opacity="0.7"/>
<path d="M650.428 181.504C645.873 181.504 641.58 180.832 637.548 179.488C633.516 178.219 629.67 176.203 626.012 173.44L630.828 162.128C634.337 164.443 637.66 166.085 640.796 167.056C643.932 168.027 646.918 168.512 649.756 168.512C654.385 168.512 658.044 167.355 660.732 165.04C663.42 162.725 664.764 159.328 664.764 154.848V151.152C663.121 153.093 660.956 154.699 658.268 155.968C655.654 157.163 652.518 157.76 648.86 157.76C644.529 157.76 640.422 156.789 636.54 154.848C632.732 152.832 629.633 149.92 627.244 146.112C624.854 142.229 623.66 137.525 623.66 132C623.66 126.475 624.854 121.808 627.244 118C629.633 114.117 632.732 111.205 636.54 109.264C640.422 107.248 644.529 106.24 648.86 106.24C652.817 106.24 656.177 106.949 658.94 108.368C661.777 109.787 664.017 111.579 665.66 113.744V107.36H680.332V152.16C680.332 158.507 679.1 163.845 676.636 168.176C674.172 172.581 670.737 175.904 666.332 178.144C661.926 180.384 656.625 181.504 650.428 181.504ZM652.444 144.992C654.982 144.992 657.222 144.507 659.164 143.536C661.105 142.491 662.636 140.997 663.756 139.056C664.876 137.115 665.436 134.763 665.436 132C665.436 129.237 664.876 126.885 663.756 124.944C662.636 123.003 661.105 121.547 659.164 120.576C657.222 119.531 654.982 119.008 652.444 119.008C649.98 119.008 647.74 119.531 645.724 120.576C643.782 121.547 642.252 123.003 641.132 124.944C640.012 126.885 639.452 129.237 639.452 132C639.452 134.763 640.012 137.115 641.132 139.056C642.252 140.997 643.782 142.491 645.724 143.536C647.74 144.507 649.98 144.992 652.444 144.992Z" fill="#AFE1D2" fill-opacity="0.7"/>
<path d="M694.395 160V85.184H730.795C736.843 85.184 741.883 85.856 745.915 87.2C750.021 88.544 753.083 90.6347 755.099 93.472C757.189 96.2347 758.235 99.8933 758.235 104.448C758.235 108.629 757.301 112.176 755.435 115.088C753.568 117.925 750.507 120.053 746.251 121.472C751.253 122.741 754.875 124.907 757.115 127.968C759.355 131.029 760.475 134.912 760.475 139.616C760.475 146.635 758.085 151.787 753.307 155.072C748.528 158.357 740.987 160 730.683 160H694.395ZM710.747 146.896H728.779C732.512 146.896 735.461 146.597 737.627 146C739.867 145.328 741.472 144.283 742.443 142.864C743.413 141.445 743.899 139.579 743.899 137.264C743.899 134.949 743.413 133.083 742.443 131.664C741.472 130.245 739.867 129.237 737.627 128.64C735.461 127.968 732.512 127.632 728.779 127.632H710.747V146.896ZM710.747 115.312H728.779C733.632 115.312 736.992 114.677 738.859 113.408C740.725 112.064 741.659 109.861 741.659 106.8C741.659 103.813 740.725 101.648 738.859 100.304C737.067 98.96 733.707 98.288 728.779 98.288H710.747V115.312Z" fill="#AFE1D2" fill-opacity="0.7"/>
<path d="M771.376 160V107.36H786.832V160H771.376ZM779.104 99.296C776.342 99.296 774.176 98.512 772.608 96.944C771.04 95.3013 770.256 93.248 770.256 90.784C770.256 88.32 771.04 86.304 772.608 84.736C774.176 83.168 776.342 82.384 779.104 82.384C781.792 82.384 783.92 83.2053 785.488 84.848C787.131 86.416 787.952 88.432 787.952 90.896C787.952 93.36 787.131 95.376 785.488 96.944C783.92 98.512 781.792 99.296 779.104 99.296Z" fill="#AFE1D2" fill-opacity="0.7"/>
<path d="M800.251 160V107.36H814.923V113.744C816.566 111.429 818.731 109.6 821.419 108.256C824.107 106.912 827.467 106.24 831.499 106.24C837.398 106.24 842.065 107.957 845.499 111.392C848.934 114.752 850.651 119.979 850.651 127.072V160H835.195V129.424C835.195 126.139 834.486 123.712 833.067 122.144C831.723 120.501 829.595 119.68 826.683 119.68C823.323 119.68 820.635 120.8 818.619 123.04C816.678 125.205 815.707 128.379 815.707 132.56V160H800.251Z" fill="#AFE1D2" fill-opacity="0.7"/>
<path d="M888.318 181.504C883.764 181.504 879.47 180.832 875.438 179.488C871.406 178.219 867.561 176.203 863.902 173.44L868.718 162.128C872.228 164.443 875.55 166.085 878.686 167.056C881.822 168.027 884.809 168.512 887.646 168.512C892.276 168.512 895.934 167.355 898.622 165.04C901.31 162.725 902.654 159.328 902.654 154.848V151.152C901.012 153.093 898.846 154.699 896.158 155.968C893.545 157.163 890.409 157.76 886.75 157.76C882.42 157.76 878.313 156.789 874.43 154.848C870.622 152.832 867.524 149.92 865.134 146.112C862.745 142.229 861.55 137.525 861.55 132C861.55 126.475 862.745 121.808 865.134 118C867.524 114.117 870.622 111.205 874.43 109.264C878.313 107.248 882.42 106.24 886.75 106.24C890.708 106.24 894.068 106.949 896.83 108.368C899.668 109.787 901.908 111.579 903.55 113.744V107.36H918.222V152.16C918.222 158.507 916.99 163.845 914.526 168.176C912.062 172.581 908.628 175.904 904.222 178.144C899.817 180.384 894.516 181.504 888.318 181.504ZM890.334 144.992C892.873 144.992 895.113 144.507 897.054 143.536C898.996 142.491 900.526 140.997 901.646 139.056C902.766 137.115 903.326 134.763 903.326 132C903.326 129.237 902.766 126.885 901.646 124.944C900.526 123.003 898.996 121.547 897.054 120.576C895.113 119.531 892.873 119.008 890.334 119.008C887.87 119.008 885.63 119.531 883.614 120.576C881.673 121.547 880.142 123.003 879.022 124.944C877.902 126.885 877.342 129.237 877.342 132C877.342 134.763 877.902 137.115 879.022 139.056C880.142 140.997 881.673 142.491 883.614 143.536C885.63 144.507 887.87 144.992 890.334 144.992Z" fill="#AFE1D2" fill-opacity="0.7"/>
<path d="M975.01 161.12C970.53 161.12 966.647 160.523 963.362 159.328C960.151 158.059 956.903 156.08 953.618 153.392L959.554 141.632C961.719 143.2 963.996 144.469 966.386 145.44C968.775 146.411 971.127 146.896 973.442 146.896C977.324 146.896 980.311 145.739 982.402 143.424C984.567 141.035 985.65 137.451 985.65 132.672V85.184H1002V131.888C1002 141.221 999.762 148.427 995.282 153.504C990.802 158.581 984.044 161.12 975.01 161.12Z" fill="#AFE1D2" fill-opacity="0.7"/>
<path d="M1032.95 161.12C1029.37 161.12 1026.09 160.523 1023.1 159.328C1020.19 158.133 1017.87 156.341 1016.15 153.952C1014.51 151.563 1013.69 148.651 1013.69 145.216C1013.69 141.632 1014.55 138.757 1016.27 136.592C1017.98 134.352 1020.3 132.672 1023.21 131.552C1026.12 130.357 1029.37 129.536 1032.95 129.088L1049.87 127.072C1049.34 124.235 1048.04 122.181 1045.95 120.912C1043.86 119.643 1041.43 119.008 1038.67 119.008C1036.35 119.008 1033.89 119.419 1031.27 120.24C1028.74 121.061 1025.75 122.443 1022.31 124.384L1017.5 113.184C1020.86 110.869 1024.44 109.152 1028.25 108.032C1032.06 106.837 1035.87 106.24 1039.67 106.24C1048.04 106.24 1054.42 108.032 1058.83 111.616C1063.31 115.125 1065.55 120.576 1065.55 127.968V160H1050.87V154.064C1048.71 156.603 1046.21 158.432 1043.37 159.552C1040.61 160.597 1037.14 161.12 1032.95 161.12ZM1037.66 149.248C1040.27 149.248 1042.47 148.763 1044.27 147.792C1046.13 146.821 1047.55 145.515 1048.52 143.872C1049.57 142.229 1050.09 140.475 1050.09 138.608V137.04L1038.11 138.608C1035.19 138.981 1033.03 139.616 1031.61 140.512C1030.19 141.333 1029.48 142.603 1029.48 144.32C1029.48 145.963 1030.15 147.195 1031.5 148.016C1032.92 148.837 1034.97 149.248 1037.66 149.248Z" fill="#AFE1D2" fill-opacity="0.7"/>
<path d="M1101.56 161.12C1096.86 161.12 1092.6 160.037 1088.79 157.872C1084.99 155.632 1081.96 152.459 1079.72 148.352C1077.48 144.171 1076.36 139.28 1076.36 133.68C1076.36 128.005 1077.48 123.115 1079.72 119.008C1081.96 114.901 1084.99 111.765 1088.79 109.6C1092.6 107.36 1096.86 106.24 1101.56 106.24C1105.15 106.24 1108.28 106.875 1110.97 108.144C1113.66 109.339 1115.82 110.981 1117.47 113.072V85.184H1133.03V160H1118.36V153.28C1116.72 155.669 1114.44 157.573 1111.53 158.992C1108.69 160.411 1105.37 161.12 1101.56 161.12ZM1105.15 147.68C1107.76 147.68 1110.04 147.12 1111.98 146C1113.92 144.88 1115.45 143.275 1116.57 141.184C1117.69 139.019 1118.25 136.517 1118.25 133.68C1118.25 130.768 1117.69 128.267 1116.57 126.176C1115.45 124.085 1113.92 122.48 1111.98 121.36C1110.04 120.24 1107.76 119.68 1105.15 119.68C1102.61 119.68 1100.33 120.24 1098.31 121.36C1096.37 122.48 1094.84 124.085 1093.72 126.176C1092.68 128.267 1092.15 130.768 1092.15 133.68C1092.15 136.517 1092.68 139.019 1093.72 141.184C1094.84 143.275 1096.37 144.88 1098.31 146C1100.33 147.12 1102.61 147.68 1105.15 147.68Z" fill="#AFE1D2" fill-opacity="0.7"/>
<path d="M1173.42 161.12C1167.97 161.12 1163 160.112 1158.52 158.096C1154.04 156.005 1150.46 152.944 1147.77 148.912C1145.08 144.805 1143.74 139.728 1143.74 133.68C1143.74 128.08 1144.97 123.227 1147.43 119.12C1149.9 115.013 1153.22 111.84 1157.4 109.6C1161.58 107.36 1166.29 106.24 1171.51 106.24C1176.82 106.24 1181.44 107.211 1185.4 109.152C1189.43 111.093 1192.57 113.819 1194.81 117.328C1197.05 120.763 1198.17 124.72 1198.17 129.2C1198.17 130.544 1197.98 132.037 1197.61 133.68C1197.24 135.248 1196.75 136.592 1196.15 137.712H1159.53C1159.9 140.101 1160.72 142.117 1161.99 143.76C1163.26 145.328 1165.02 146.523 1167.26 147.344C1169.5 148.165 1172.07 148.576 1174.99 148.576C1178.05 148.576 1180.92 148.128 1183.61 147.232C1186.3 146.261 1188.84 144.992 1191.23 143.424L1195.93 154.288C1192.72 156.528 1189.21 158.245 1185.4 159.44C1181.67 160.56 1177.67 161.12 1173.42 161.12ZM1159.53 127.632H1182.27C1182.34 127.483 1182.38 127.333 1182.38 127.184C1182.38 127.035 1182.38 126.811 1182.38 126.512C1182.38 124.795 1182 123.339 1181.26 122.144C1180.51 120.875 1179.35 119.904 1177.79 119.232C1176.29 118.485 1174.35 118.112 1171.96 118.112C1169.8 118.112 1167.82 118.523 1166.03 119.344C1164.31 120.091 1162.89 121.173 1161.77 122.592C1160.65 124.011 1159.9 125.691 1159.53 127.632Z" fill="#AFE1D2" fill-opacity="0.7"/>
<path d="M485.909 227.091V262H481.818L462.795 234.591H462.455V262H458.227V227.091H462.318L481.409 254.568H481.75V227.091H485.909Z" fill="#5E837A"/>
<path d="M495.8 262H491.368L504.186 227.091H508.55L521.368 262H516.936L506.504 232.614H506.232L495.8 262ZM497.436 248.364H515.3V252.114H497.436V248.364Z" fill="#5E837A"/>
<path d="M520.818 230.841V227.091H547V230.841H536.023V262H531.795V230.841H520.818Z" fill="#5E837A"/>
<path d="M576.433 227.091H580.661V250.205C580.661 252.591 580.098 254.722 578.973 256.597C577.859 258.46 576.286 259.932 574.251 261.011C572.217 262.08 569.831 262.614 567.092 262.614C564.354 262.614 561.967 262.08 559.933 261.011C557.899 259.932 556.32 258.46 555.195 256.597C554.081 254.722 553.524 252.591 553.524 250.205V227.091H557.751V249.864C557.751 251.568 558.126 253.085 558.876 254.415C559.626 255.733 560.695 256.773 562.081 257.534C563.479 258.284 565.149 258.659 567.092 258.659C569.036 258.659 570.706 258.284 572.104 257.534C573.501 256.773 574.57 255.733 575.308 254.415C576.058 253.085 576.433 251.568 576.433 249.864V227.091Z" fill="#5E837A"/>
<path d="M589.102 262V227.091H600.898C603.625 227.091 605.864 227.557 607.614 228.489C609.364 229.409 610.659 230.676 611.5 232.29C612.341 233.903 612.761 235.739 612.761 237.795C612.761 239.852 612.341 241.676 611.5 243.267C610.659 244.858 609.369 246.108 607.631 247.017C605.892 247.915 603.67 248.364 600.966 248.364H591.42V244.545H600.83C602.693 244.545 604.193 244.273 605.33 243.727C606.477 243.182 607.307 242.409 607.818 241.409C608.341 240.398 608.602 239.193 608.602 237.795C608.602 236.398 608.341 235.176 607.818 234.131C607.295 233.085 606.46 232.278 605.312 231.71C604.165 231.131 602.648 230.841 600.761 230.841H593.33V262H589.102ZM605.534 246.318L614.125 262H609.216L600.761 246.318H605.534Z" fill="#5E837A"/>
<path d="M621.237 262H616.805L629.624 227.091H633.987L646.805 262H642.374L631.942 232.614H631.669L621.237 262ZM622.874 248.364H640.737V252.114H622.874V248.364Z" fill="#5E837A"/>
<path d="M652.243 262V227.091H656.47V258.25H672.697V262H652.243Z" fill="#5E837A"/>
<path d="M706.107 227.091H710.334V252.045C710.334 254.273 709.925 256.165 709.107 257.722C708.288 259.278 707.135 260.46 705.646 261.267C704.158 262.074 702.402 262.477 700.379 262.477C698.47 262.477 696.771 262.131 695.283 261.438C693.794 260.733 692.624 259.733 691.771 258.438C690.919 257.142 690.493 255.602 690.493 253.818H694.652C694.652 254.807 694.896 255.67 695.385 256.409C695.885 257.136 696.567 257.705 697.43 258.114C698.294 258.523 699.277 258.727 700.379 258.727C701.595 258.727 702.629 258.472 703.482 257.96C704.334 257.449 704.982 256.699 705.425 255.71C705.879 254.71 706.107 253.489 706.107 252.045V227.091Z" fill="#5E837A"/>
<path d="M720.237 262H715.805L728.624 227.091H732.987L745.805 262H741.374L730.942 232.614H730.669L720.237 262ZM721.874 248.364H739.737V252.114H721.874V248.364Z" fill="#5E837A"/>
<path d="M762.016 262H751.243V227.091H762.493C765.879 227.091 768.777 227.79 771.186 229.188C773.595 230.574 775.442 232.568 776.726 235.17C778.01 237.761 778.652 240.864 778.652 244.477C778.652 248.114 778.004 251.244 776.709 253.869C775.413 256.483 773.527 258.494 771.05 259.903C768.572 261.301 765.561 262 762.016 262ZM755.47 258.25H761.743C764.629 258.25 767.021 257.693 768.919 256.58C770.817 255.466 772.232 253.881 773.163 251.824C774.095 249.767 774.561 247.318 774.561 244.477C774.561 241.659 774.101 239.233 773.18 237.199C772.26 235.153 770.885 233.585 769.055 232.494C767.226 231.392 764.947 230.841 762.22 230.841H755.47V258.25Z" fill="#5E837A"/>
<path d="M785.743 262V227.091H806.811V230.841H789.97V242.636H805.72V246.386H789.97V258.25H807.084V262H785.743Z" fill="#5E837A"/>
<path d="M818.658 227.091V262H814.43V227.091H818.658Z" fill="#5E837A"/>
<path d="M825.224 230.841V227.091H851.406V230.841H840.429V262H836.202V230.841H825.224Z" fill="#5E837A"/>
<path d="M857.93 262V227.091H878.999V230.841H862.158V242.636H877.908V246.386H862.158V258.25H879.271V262H857.93Z" fill="#5E837A"/>
<path d="M468.352 311.312H477.52V312.704H468.784L468.352 311.312ZM476.368 311.312H475.936L477.808 309.392L481.216 312.464C480.992 312.784 480.384 312.992 479.392 313.088C478.816 315.904 477.984 318.736 476.896 321.584C475.808 324.432 474.368 327.152 472.576 329.744C470.816 332.304 468.576 334.576 465.856 336.56L465.28 335.936C467.456 333.888 469.28 331.504 470.752 328.784C472.256 326.064 473.456 323.2 474.352 320.192C475.28 317.184 475.952 314.224 476.368 311.312ZM484.96 306.368C485.504 310.176 486.288 313.536 487.312 316.448C488.336 319.328 489.552 321.84 490.96 323.984C492.368 326.128 493.904 327.968 495.568 329.504C497.232 331.04 498.96 332.368 500.752 333.488L500.56 334.016C499.888 334.112 499.28 334.432 498.736 334.976C498.224 335.52 497.84 336.192 497.584 336.992C495.824 335.456 494.24 333.776 492.832 331.952C491.424 330.128 490.16 328.032 489.04 325.664C487.952 323.296 487.008 320.56 486.208 317.456C485.44 314.32 484.832 310.704 484.384 306.608L484.96 306.368ZM484.96 300.032V336.896C484.96 337.728 484.848 338.48 484.624 339.152C484.432 339.824 483.952 340.352 483.184 340.736C482.416 341.152 481.232 341.44 479.632 341.6C479.568 341.12 479.44 340.688 479.248 340.304C479.056 339.92 478.768 339.6 478.384 339.344C478 339.056 477.424 338.8 476.656 338.576C475.92 338.384 474.944 338.208 473.728 338.048V337.28C473.728 337.28 474.016 337.312 474.592 337.376C475.2 337.408 475.92 337.456 476.752 337.52C477.584 337.584 478.368 337.648 479.104 337.712C479.84 337.744 480.352 337.76 480.64 337.76C481.152 337.76 481.488 337.664 481.648 337.472C481.84 337.28 481.936 336.992 481.936 336.608V298.16L486.688 298.736C486.624 299.056 486.464 299.328 486.208 299.552C485.984 299.776 485.568 299.936 484.96 300.032ZM495.616 306.416L500.128 309.152C499.968 309.376 499.76 309.536 499.504 309.632C499.248 309.696 498.832 309.68 498.256 309.584C497.456 310.416 496.48 311.36 495.328 312.416C494.176 313.472 492.944 314.544 491.632 315.632C490.32 316.688 488.992 317.68 487.648 318.608L487.12 318.032C488.176 316.88 489.232 315.616 490.288 314.24C491.376 312.832 492.384 311.44 493.312 310.064C494.272 308.656 495.04 307.44 495.616 306.416ZM457.648 301.184C459.472 301.696 460.944 302.304 462.064 303.008C463.216 303.712 464.064 304.432 464.608 305.168C465.152 305.904 465.472 306.608 465.568 307.28C465.696 307.92 465.632 308.448 465.376 308.864C465.152 309.28 464.8 309.536 464.32 309.632C463.872 309.728 463.36 309.584 462.784 309.2C462.528 308.336 462.08 307.44 461.44 306.512C460.832 305.584 460.144 304.688 459.376 303.824C458.64 302.96 457.904 302.208 457.168 301.568L457.648 301.184ZM458.368 326.432C458.656 326.432 458.864 326.4 458.992 326.336C459.152 326.24 459.344 325.952 459.568 325.472C459.76 325.152 459.936 324.832 460.096 324.512C460.288 324.16 460.544 323.664 460.864 323.024C461.216 322.352 461.712 321.376 462.352 320.096C463.024 318.784 463.92 316.992 465.04 314.72C466.192 312.416 467.68 309.456 469.504 305.84L470.368 306.128C469.92 307.248 469.392 308.528 468.784 309.968C468.208 311.376 467.6 312.832 466.96 314.336C466.352 315.84 465.76 317.28 465.184 318.656C464.64 320.032 464.16 321.232 463.744 322.256C463.328 323.248 463.056 323.936 462.928 324.32C462.704 325.056 462.512 325.76 462.352 326.432C462.192 327.104 462.128 327.728 462.16 328.304C462.16 328.976 462.256 329.696 462.448 330.464C462.672 331.2 462.88 332.032 463.072 332.96C463.264 333.888 463.328 334.976 463.264 336.224C463.232 337.216 462.992 338 462.544 338.576C462.128 339.152 461.52 339.44 460.72 339.44C460.272 339.44 459.92 339.232 459.664 338.816C459.44 338.4 459.296 337.824 459.232 337.088C459.456 335.456 459.568 334.016 459.568 332.768C459.568 331.488 459.488 330.448 459.328 329.648C459.168 328.848 458.912 328.336 458.56 328.112C458.24 327.888 457.888 327.728 457.504 327.632C457.152 327.536 456.704 327.472 456.16 327.44V326.432C456.16 326.432 456.304 326.432 456.592 326.432C456.88 326.432 457.2 326.432 457.552 326.432C457.936 326.432 458.208 326.432 458.368 326.432Z" fill="#6E958B"/>
<path d="M521.632 312.944C521.632 312.944 521.84 313.12 522.256 313.472C522.704 313.824 523.216 314.24 523.792 314.72C524.4 315.2 524.944 315.68 525.424 316.16C525.296 316.672 524.896 316.928 524.224 316.928H504.208L503.824 315.536H519.568L521.632 312.944ZM521.248 302.144C521.248 302.144 521.472 302.32 521.92 302.672C522.368 303.024 522.88 303.456 523.456 303.968C524.064 304.448 524.608 304.928 525.088 305.408C524.992 305.92 524.56 306.176 523.792 306.176H504.928L504.544 304.736H519.232L521.248 302.144ZM524.8 327.776C525.888 327.488 527.408 327.04 529.36 326.432C531.344 325.792 533.568 325.056 536.032 324.224C538.528 323.392 541.088 322.528 543.712 321.632L543.952 322.352C542.128 323.28 539.92 324.416 537.328 325.76C534.736 327.104 531.696 328.608 528.208 330.272C528.08 330.912 527.776 331.344 527.296 331.568L524.8 327.776ZM511.264 297.824C512.64 298.208 513.712 298.672 514.48 299.216C515.28 299.76 515.84 300.32 516.16 300.896C516.48 301.472 516.608 302.016 516.544 302.528C516.512 303.04 516.336 303.456 516.016 303.776C515.728 304.096 515.36 304.272 514.912 304.304C514.464 304.336 514 304.144 513.52 303.728C513.456 302.768 513.136 301.76 512.56 300.704C512.016 299.648 511.408 298.8 510.736 298.16L511.264 297.824ZM542.752 305.84L544.624 303.776L548.32 306.896C548.128 307.088 547.872 307.248 547.552 307.376C547.232 307.504 546.8 307.584 546.256 307.616C546.128 311.872 545.952 315.776 545.728 319.328C545.504 322.848 545.216 325.984 544.864 328.736C544.512 331.456 544.096 333.712 543.616 335.504C543.136 337.296 542.576 338.56 541.936 339.296C541.232 340.128 540.384 340.704 539.392 341.024C538.432 341.344 537.328 341.504 536.08 341.504C536.08 341.024 536.016 340.592 535.888 340.208C535.792 339.856 535.584 339.552 535.264 339.296C534.848 339.04 534.128 338.784 533.104 338.528C532.112 338.304 531.088 338.112 530.032 337.952L530.128 337.04C530.928 337.104 531.808 337.2 532.768 337.328C533.76 337.424 534.688 337.504 535.552 337.568C536.448 337.632 537.088 337.664 537.472 337.664C537.984 337.664 538.368 337.616 538.624 337.52C538.88 337.424 539.168 337.232 539.488 336.944C540.032 336.464 540.512 335.344 540.928 333.584C541.344 331.824 541.696 329.568 541.984 326.816C542.304 324.064 542.576 320.912 542.8 317.36C543.024 313.808 543.2 309.968 543.328 305.84H542.752ZM535.024 299.408C534.928 299.664 534.736 299.888 534.448 300.08C534.16 300.272 533.744 300.352 533.2 300.32C532.144 303.104 530.848 305.696 529.312 308.096C527.776 310.464 526.112 312.448 524.32 314.048L523.6 313.568C524.464 312.288 525.28 310.8 526.048 309.104C526.848 307.408 527.584 305.6 528.256 303.68C528.96 301.728 529.536 299.776 529.984 297.824L535.024 299.408ZM545.104 305.84V307.28H529.024L529.456 305.84H545.104ZM528.88 311.504C530.576 312.272 531.936 313.088 532.96 313.952C533.984 314.816 534.736 315.664 535.216 316.496C535.696 317.296 535.952 318.032 535.984 318.704C536.048 319.376 535.952 319.936 535.696 320.384C535.44 320.8 535.072 321.04 534.592 321.104C534.144 321.136 533.648 320.944 533.104 320.528C532.944 319.6 532.608 318.608 532.096 317.552C531.584 316.464 530.992 315.424 530.32 314.432C529.648 313.408 528.976 312.528 528.304 311.792L528.88 311.504ZM522.448 307.808C522.352 308.096 522.16 308.336 521.872 308.528C521.584 308.688 521.184 308.768 520.672 308.768C520.16 309.92 519.456 311.184 518.56 312.56C517.664 313.904 516.736 315.136 515.776 316.256H514.768C515.408 314.912 516 313.344 516.544 311.552C517.12 309.728 517.552 308.064 517.84 306.56L522.448 307.808ZM509.44 340.304C509.44 340.4 509.312 340.528 509.056 340.688C508.832 340.848 508.528 340.992 508.144 341.12C507.76 341.28 507.36 341.36 506.944 341.36H506.416V319.856L509.632 321.344H520.576V322.784H509.44V340.304ZM517.984 321.344L519.712 319.472L523.504 322.352C523.344 322.544 523.088 322.72 522.736 322.88C522.384 323.04 521.968 323.168 521.488 323.264V339.44C521.488 339.536 521.344 339.664 521.056 339.824C520.768 340.016 520.432 340.176 520.048 340.304C519.664 340.432 519.296 340.496 518.944 340.496H518.464V321.344H517.984ZM519.856 328.544V329.984H507.76V328.544H519.856ZM519.856 336.032V337.472H507.808V336.032H519.856ZM507.616 306.992C508.736 307.728 509.6 308.496 510.208 309.296C510.848 310.064 511.28 310.784 511.504 311.456C511.728 312.128 511.792 312.752 511.696 313.328C511.6 313.872 511.392 314.288 511.072 314.576C510.784 314.864 510.432 315.008 510.016 315.008C509.6 315.008 509.2 314.8 508.816 314.384C508.88 313.232 508.704 311.984 508.288 310.64C507.904 309.296 507.456 308.16 506.944 307.232L507.616 306.992Z" fill="#6E958B"/>
<path d="M566.512 302.912H588.592L590.704 300.32C590.704 300.32 590.928 300.496 591.376 300.848C591.824 301.2 592.336 301.632 592.912 302.144C593.52 302.624 594.08 303.104 594.592 303.584C594.464 304.096 594.048 304.352 593.344 304.352H566.896L566.512 302.912ZM565.024 313.904H589.552L591.76 311.216C591.76 311.216 591.888 311.328 592.144 311.552C592.4 311.776 592.736 312.048 593.152 312.368C593.568 312.688 594 313.04 594.448 313.424C594.928 313.808 595.344 314.176 595.696 314.528C595.6 315.04 595.184 315.296 594.448 315.296H565.408L565.024 313.904ZM567.616 308.192H587.632L589.744 305.6C589.744 305.6 589.952 305.776 590.368 306.128C590.816 306.48 591.328 306.912 591.904 307.424C592.512 307.936 593.056 308.416 593.536 308.864C593.44 309.376 593.04 309.632 592.336 309.632H567.952L567.616 308.192ZM577.984 298.112L582.88 298.64C582.848 298.96 582.688 299.248 582.4 299.504C582.112 299.728 581.68 299.888 581.104 299.984V314.72H577.984V298.112ZM571.072 324.752H589.36V326.144H571.072V324.752ZM571.168 330.752H589.264V332.144H571.168V330.752ZM555.328 298.352C557.088 298.608 558.512 298.992 559.6 299.504C560.72 300.016 561.552 300.592 562.096 301.232C562.672 301.84 563.024 302.448 563.152 303.056C563.28 303.632 563.232 304.128 563.008 304.544C562.784 304.96 562.432 305.232 561.952 305.36C561.504 305.488 560.992 305.392 560.416 305.072C560.16 304.336 559.728 303.584 559.12 302.816C558.512 302.016 557.84 301.264 557.104 300.56C556.368 299.856 555.648 299.264 554.944 298.784L555.328 298.352ZM551.968 309.248C553.664 309.472 555.04 309.824 556.096 310.304C557.184 310.752 557.984 311.28 558.496 311.888C559.04 312.464 559.376 313.04 559.504 313.616C559.632 314.16 559.584 314.64 559.36 315.056C559.136 315.44 558.8 315.68 558.352 315.776C557.904 315.872 557.392 315.776 556.816 315.488C556.56 314.784 556.144 314.064 555.568 313.328C555.024 312.592 554.384 311.92 553.648 311.312C552.944 310.672 552.24 310.144 551.536 309.728L551.968 309.248ZM554.896 328.304C555.184 328.304 555.392 328.256 555.52 328.16C555.68 328.064 555.872 327.776 556.096 327.296C556.288 326.944 556.448 326.608 556.576 326.288C556.736 325.968 556.96 325.472 557.248 324.8C557.568 324.096 558.016 323.072 558.592 321.728C559.168 320.352 559.952 318.48 560.944 316.112C561.936 313.712 563.232 310.64 564.832 306.896L565.744 307.136C565.36 308.32 564.912 309.648 564.4 311.12C563.888 312.592 563.376 314.112 562.864 315.68C562.352 317.216 561.856 318.688 561.376 320.096C560.928 321.504 560.528 322.736 560.176 323.792C559.824 324.816 559.584 325.568 559.456 326.048C559.264 326.784 559.088 327.52 558.928 328.256C558.8 328.96 558.752 329.6 558.784 330.176C558.784 330.72 558.848 331.28 558.976 331.856C559.136 332.4 559.296 332.992 559.456 333.632C559.648 334.272 559.792 334.992 559.888 335.792C560.016 336.56 560.064 337.44 560.032 338.432C560 339.424 559.744 340.208 559.264 340.784C558.784 341.392 558.144 341.696 557.344 341.696C556.896 341.696 556.528 341.488 556.24 341.072C555.984 340.656 555.84 340.08 555.808 339.344C556.032 337.712 556.144 336.24 556.144 334.928C556.176 333.584 556.096 332.48 555.904 331.616C555.744 330.752 555.488 330.208 555.136 329.984C554.816 329.76 554.48 329.616 554.128 329.552C553.776 329.456 553.328 329.392 552.784 329.36V328.304C552.784 328.304 552.928 328.304 553.216 328.304C553.504 328.304 553.808 328.304 554.128 328.304C554.48 328.304 554.736 328.304 554.896 328.304ZM587.728 319.088H587.248L588.832 317.12L592.864 320.144C592.736 320.336 592.48 320.528 592.096 320.72C591.712 320.912 591.28 321.04 590.8 321.104V337.376C590.8 338.176 590.688 338.864 590.464 339.44C590.24 340.048 589.76 340.544 589.024 340.928C588.288 341.312 587.152 341.6 585.616 341.792C585.552 341.312 585.44 340.88 585.28 340.496C585.12 340.112 584.848 339.792 584.464 339.536C584.08 339.28 583.536 339.056 582.832 338.864C582.128 338.672 581.184 338.512 580 338.384V337.616C580 337.616 580.272 337.648 580.816 337.712C581.392 337.744 582.064 337.776 582.832 337.808C583.632 337.84 584.384 337.888 585.088 337.952C585.792 337.984 586.272 338 586.528 338C587.008 338 587.328 337.92 587.488 337.76C587.648 337.6 587.728 337.344 587.728 336.992V319.088ZM569.296 317.6L572.56 319.088H589.456V320.432H572.272V340.64C572.272 340.736 572.144 340.864 571.888 341.024C571.664 341.216 571.36 341.376 570.976 341.504C570.624 341.664 570.224 341.744 569.776 341.744H569.296V317.6Z" fill="#6E958B"/>
<path d="M605.296 333.056C605.296 333.184 605.184 333.344 604.96 333.536C604.768 333.696 604.496 333.856 604.144 334.016C603.792 334.144 603.392 334.208 602.944 334.208H602.416V301.04L605.584 302.576H613.84V303.968H605.296V333.056ZM613.744 326.864V328.304H604V326.864H613.744ZM610.864 302.576L612.64 300.656L616.384 303.632C616.224 303.824 615.952 304 615.568 304.16C615.216 304.32 614.8 304.448 614.32 304.544V330.464C614.32 330.56 614.176 330.704 613.888 330.896C613.6 331.056 613.264 331.216 612.88 331.376C612.528 331.504 612.176 331.568 611.824 331.568H611.344V302.576H610.864ZM624.496 306.752C626.032 307.232 627.264 307.792 628.192 308.432C629.152 309.072 629.856 309.728 630.304 310.4C630.752 311.04 631.008 311.632 631.072 312.176C631.136 312.72 631.04 313.184 630.784 313.568C630.56 313.92 630.224 314.128 629.776 314.192C629.36 314.224 628.896 314.08 628.384 313.76C628.192 313.024 627.856 312.256 627.376 311.456C626.896 310.624 626.352 309.824 625.744 309.056C625.136 308.288 624.528 307.648 623.92 307.136L624.496 306.752ZM632.32 327.392C632.32 327.392 632.544 327.568 632.992 327.92C633.472 328.272 634.016 328.704 634.624 329.216C635.264 329.728 635.824 330.224 636.304 330.704C636.176 331.216 635.776 331.472 635.104 331.472H615.328L614.944 330.08H630.256L632.32 327.392ZM619.168 301.28L622.768 303.008H622.144V305.888C622.144 305.888 621.904 305.888 621.424 305.888C620.944 305.888 620.192 305.888 619.168 305.888V301.28ZM621.472 304.64L622.144 305.024V324.08H622.48L621.328 325.856L617.824 323.504C618.08 323.248 618.416 322.992 618.832 322.736C619.28 322.448 619.664 322.24 619.984 322.112L619.168 323.648V304.64H621.472ZM631.648 298.784C631.456 299.488 630.864 299.84 629.872 299.84C629.456 300.448 628.96 301.12 628.384 301.856C627.84 302.56 627.328 303.168 626.848 303.68H625.504C625.664 302.944 625.84 302 626.032 300.848C626.256 299.664 626.416 298.64 626.512 297.776L631.648 298.784ZM638.752 322.688L640.528 320.816L644.032 323.744C643.744 324.096 643.12 324.32 642.16 324.416C642.032 327.392 641.808 329.952 641.488 332.096C641.168 334.24 640.768 335.984 640.288 337.328C639.808 338.64 639.232 339.584 638.56 340.16C638.016 340.64 637.344 340.992 636.544 341.216C635.744 341.472 634.896 341.6 634 341.6C634 341.152 633.952 340.736 633.856 340.352C633.76 339.968 633.536 339.664 633.184 339.44C632.864 339.216 632.352 338.992 631.648 338.768C630.976 338.576 630.24 338.432 629.44 338.336L629.488 337.472C630.064 337.504 630.72 337.568 631.456 337.664C632.192 337.728 632.88 337.792 633.52 337.856C634.192 337.888 634.672 337.904 634.96 337.904C635.728 337.904 636.272 337.728 636.592 337.376C637.2 336.864 637.744 335.344 638.224 332.816C638.704 330.288 639.04 326.912 639.232 322.688H638.752ZM639.952 322.688V324.08H620.608V322.688H639.952ZM636.976 303.008V304.448H621.088V303.008H636.976ZM635.152 303.008L636.88 301.184L640.432 304.112C640.272 304.272 640.048 304.416 639.76 304.544C639.472 304.64 639.088 304.72 638.608 304.784C638.512 307.568 638.352 309.92 638.128 311.84C637.936 313.76 637.648 315.296 637.264 316.448C636.912 317.568 636.448 318.384 635.872 318.896C635.328 319.344 634.688 319.696 633.952 319.952C633.216 320.176 632.416 320.288 631.552 320.288C631.552 319.84 631.504 319.424 631.408 319.04C631.312 318.656 631.12 318.336 630.832 318.08C630.544 317.856 630.064 317.648 629.392 317.456C628.752 317.264 628.08 317.12 627.376 317.024V316.208C627.888 316.24 628.464 316.288 629.104 316.352C629.776 316.416 630.416 316.464 631.024 316.496C631.632 316.528 632.08 316.544 632.368 316.544C632.784 316.544 633.088 316.528 633.28 316.496C633.504 316.432 633.696 316.32 633.856 316.16C634.336 315.68 634.72 314.368 635.008 312.224C635.296 310.048 635.504 306.976 635.632 303.008H635.152Z" fill="#6E958B"/>
</g>
<defs>
<filter id="filter0_f_1_31" x="66.8913" y="2.67579" width="196.402" height="156.925" filterUnits="userSpaceOnUse" color-interpolation-filters="sRGB">
<feFlood flood-opacity="0" result="BackgroundImageFix"/>
<feBlend mode="normal" in="SourceGraphic" in2="BackgroundImageFix" result="shape"/>
<feGaussianBlur stdDeviation="8" result="effect1_foregroundBlur_1_31"/>
</filter>
<filter id="filter1_f_1_31" x="201.092" y="180.645" width="180.619" height="141.234" filterUnits="userSpaceOnUse" color-interpolation-filters="sRGB">
<feFlood flood-opacity="0" result="BackgroundImageFix"/>
<feBlend mode="normal" in="SourceGraphic" in2="BackgroundImageFix" result="shape"/>
<feGaussianBlur stdDeviation="16" result="effect1_foregroundBlur_1_31"/>
</filter>
<filter id="filter2_f_1_31" x="243.265" y="19.0552" width="130.877" height="106.628" filterUnits="userSpaceOnUse" color-interpolation-filters="sRGB">
<feFlood flood-opacity="0" result="BackgroundImageFix"/>
<feBlend mode="normal" in="SourceGraphic" in2="BackgroundImageFix" result="shape"/>
<feGaussianBlur stdDeviation="16" result="effect1_foregroundBlur_1_31"/>
</filter>
<filter id="filter3_f_1_31" x="45.4345" y="174.382" width="142.42" height="111.666" filterUnits="userSpaceOnUse" color-interpolation-filters="sRGB">
<feFlood flood-opacity="0" result="BackgroundImageFix"/>
<feBlend mode="normal" in="SourceGraphic" in2="BackgroundImageFix" result="shape"/>
<feGaussianBlur stdDeviation="16" result="effect1_foregroundBlur_1_31"/>
</filter>
<filter id="filter4_f_1_31" x="76.0716" y="113.577" width="319.922" height="82.0081" filterUnits="userSpaceOnUse" color-interpolation-filters="sRGB">
<feFlood flood-opacity="0" result="BackgroundImageFix"/>
<feBlend mode="normal" in="SourceGraphic" in2="BackgroundImageFix" result="shape"/>
<feGaussianBlur stdDeviation="8" result="effect1_foregroundBlur_1_31"/>
</filter>
<radialGradient id="paint0_radial_1_31" cx="0" cy="0" r="1" gradientTransform="matrix(162.995 115.686 -114.13 165.217 172.013 110.954)" gradientUnits="userSpaceOnUse">
<stop stop-color="#F2FFFB"/>
<stop offset="0.18" stop-color="#DDF7EF"/>
<stop offset="0.42" stop-color="#A7DED0"/>
<stop offset="0.68" stop-color="#6EB9A8"/>
<stop offset="1" stop-color="#3F8E7E"/>
</radialGradient>
<linearGradient id="paint1_linear_1_31" x1="50.8947" y1="-4.79999" x2="320.962" y2="261.636" gradientUnits="userSpaceOnUse">
<stop stop-color="#F5FFFC" stop-opacity="0.8"/>
<stop offset="0.22" stop-color="#BDE8DB" stop-opacity="0.45"/>
<stop offset="0.55" stop-color="#6FB8A8" stop-opacity="0.08"/>
<stop offset="1" stop-color="#245E53" stop-opacity="0.42"/>
</linearGradient>
<radialGradient id="paint2_radial_1_31" cx="0" cy="0" r="1" gradientTransform="matrix(100.34 1.77532 -1.32867 77.1575 138.383 72.0743)" gradientUnits="userSpaceOnUse">
<stop stop-color="white" stop-opacity="0.95"/>
<stop offset="0.45" stop-color="#E7FFF8" stop-opacity="0.45"/>
<stop offset="1" stop-color="#E7FFF8" stop-opacity="0"/>
</radialGradient>
<linearGradient id="paint3_linear_1_31" x1="71.6579" y1="9.23077" x2="296.314" y2="244.718" gradientUnits="userSpaceOnUse">
<stop stop-color="white" stop-opacity="0.85"/>
<stop offset="0.2" stop-color="#EAFFF8" stop-opacity="0.45"/>
<stop offset="0.48" stop-color="#8ED3C2" stop-opacity="0.15"/>
<stop offset="0.75" stop-color="#2E7A6A" stop-opacity="0.3"/>
<stop offset="1" stop-color="#163F37" stop-opacity="0.65"/>
</linearGradient>
<clipPath id="clip0_1_31">
<rect width="1427" height="372" fill="white"/>
</clipPath>
</defs>
</svg>
