<svg width="3756" height="1358" viewBox="0 0 3756 1358" fill="none" xmlns="http://www.w3.org/2000/svg">
<g clip-path="url(#clip0_7_3)">
<mask id="mask0_7_3" style="mask-type:luminance" maskUnits="userSpaceOnUse" x="-259" y="-97" width="3717" height="1302">
<path d="M3447.78 -97L-259 -69.9616L-249.778 1205L3457 1177.96L3447.78 -97Z" fill="black"/>
<path d="M579.086 1159.72C826.904 1157.91 1026.34 954.467 1024.54 705.309C1022.74 456.151 820.378 255.634 572.56 257.442C324.741 259.249 125.305 462.697 127.107 711.855C128.91 961.013 331.267 1161.53 579.086 1159.72Z" fill="white"/>
<path d="M577.88 992.997C734.113 991.857 859.844 863.597 858.708 706.519C857.572 549.441 729.999 423.028 573.765 424.168C417.532 425.307 291.801 553.568 292.937 710.646C294.073 867.723 421.646 994.136 577.88 992.997Z" fill="black"/>
</mask>
<g mask="url(#mask0_7_3)">
<path d="M1118.11 155.383L25.5883 163.352L33.5332 1261.78L1126.06 1253.81L1118.11 155.383Z" fill="url(#paint0_radial_7_3)" fill-opacity="0.7"/>
<path d="M1118.11 155.383L25.5883 163.352L33.5332 1261.78L1126.06 1253.81L1118.11 155.383Z" fill="url(#paint1_linear_7_3)" fill-opacity="0.7"/>
<g filter="url(#filter0_f_7_3)">
<path d="M404.136 563.86C526.778 507.886 597.313 398.536 561.68 319.621C526.048 240.705 397.741 222.108 275.1 278.082C152.458 334.057 81.9232 443.407 117.556 522.322C153.188 601.238 281.495 619.835 404.136 563.86Z" fill="url(#paint2_radial_7_3)"/>
</g>
<g filter="url(#filter1_f_7_3)">
<path d="M735.396 974.408C823.698 934.107 879.032 865.451 858.989 821.061C838.946 776.671 751.115 773.357 662.813 813.658C574.511 853.96 519.176 922.616 539.219 967.006C559.262 1011.4 647.094 1014.71 735.396 974.408Z" fill="#D9FFF5" fill-opacity="0.12"/>
</g>
<g filter="url(#filter2_f_7_3)">
<path d="M728.052 444.922C779.41 461.286 828.3 451.529 837.251 423.13C846.203 394.731 811.826 358.443 760.468 342.079C709.11 325.714 660.219 335.471 651.268 363.87C642.317 392.27 676.694 428.558 728.052 444.922Z" fill="#F3FFF9" fill-opacity="0.16"/>
</g>
<g filter="url(#filter3_f_7_3)">
<path d="M219.701 901.041C280.208 887.648 323.155 848.917 315.625 814.532C308.095 780.148 252.94 763.131 192.433 776.523C131.926 789.916 88.9795 828.647 96.5092 863.032C104.039 897.416 159.194 914.434 219.701 901.041Z" fill="white" fill-opacity="0.09"/>
</g>
<g filter="url(#filter4_f_7_3)">
<path d="M160.681 633.147C257.732 563.784 355.314 567.976 443.532 626.18C497.466 665.018 546.239 664.662 623.993 624.863C711.466 580.09 818.838 589.114 921.83 666.827" stroke="#F2FFF9" stroke-opacity="0.12" stroke-width="18" stroke-linecap="round"/>
</g>
</g>
<path d="M353.038 394.561C425.055 362.586 475.08 317.952 464.774 294.867C454.468 271.783 387.733 278.991 315.716 310.966C243.7 342.941 193.674 387.575 203.981 410.659C214.287 433.744 281.022 426.536 353.038 394.561Z" fill="white" fill-opacity="0.68"/>
<path d="M475.213 305.253C506.077 291.549 527.384 272.123 522.803 261.863C518.223 251.604 489.489 254.396 458.625 268.099C427.761 281.803 406.454 301.229 411.035 311.488C415.615 321.748 444.349 318.956 475.213 305.253Z" fill="white" fill-opacity="0.52"/>
<path d="M584.746 1136.44C821.383 1136.44 1013.21 946.214 1013.21 711.557C1013.21 476.899 821.383 286.672 584.746 286.672C348.109 286.672 156.277 476.899 156.277 711.557C156.277 946.214 348.109 1136.44 584.746 1136.44Z" stroke="url(#paint3_linear_7_3)" stroke-width="160"/>
<path d="M409.073 484.749H454.052V492.22H411.44L409.073 484.749ZM445.372 484.749H442.478L457.208 469.808L483.511 491.705C482.108 493.766 478.864 495.054 473.779 495.569C470.973 510.854 466.765 526.225 461.153 541.682C455.542 556.967 447.739 571.479 437.744 585.218C427.748 598.786 414.948 610.722 399.341 621.026L396.711 618.193C407.057 606.858 415.561 593.805 422.225 579.036C428.888 564.094 434.061 548.551 437.744 532.408C441.426 516.092 443.969 500.206 445.372 484.749ZM509.814 459.246C512.795 478.996 517.004 496.256 522.44 511.026C527.876 525.796 534.364 538.505 541.904 549.153C549.445 559.629 557.599 568.559 566.366 575.944C575.134 583.329 584.252 589.598 593.722 594.75L592.406 597.584C585.918 598.786 580.219 602.135 575.309 607.631C570.575 613.126 567.068 619.567 564.788 626.951C556.196 618.193 548.743 608.747 542.43 598.614C536.118 588.31 530.682 576.717 526.122 563.836C521.563 550.956 517.793 536.014 514.812 519.012C511.831 502.009 509.464 482.345 507.71 460.019L509.814 459.246ZM510.077 424.983V616.389C510.077 623.259 509.201 629.098 507.447 633.907C505.694 638.888 501.923 642.838 496.137 645.757C490.525 648.677 481.758 650.652 469.834 651.682C469.307 647.045 468.518 643.009 467.466 639.574C466.414 636.311 464.748 633.564 462.469 631.331C460.189 628.926 457.12 626.951 453.263 625.406C449.58 623.688 444.056 622.314 436.692 621.284V617.42C436.692 617.42 438.27 617.592 441.426 617.935C444.758 618.107 448.616 618.364 452.999 618.708C457.559 618.88 461.855 619.051 465.888 619.223C470.097 619.395 472.99 619.481 474.568 619.481C477.023 619.481 478.601 619.051 479.303 618.193C480.179 617.334 480.618 616.046 480.618 614.328V414.164L519.284 418.028C519.108 419.745 518.407 421.205 517.179 422.407C515.952 423.609 513.585 424.468 510.077 424.983ZM554.53 455.639L589.513 477.794C588.636 478.996 587.497 479.941 586.094 480.628C584.691 481.143 582.411 481.143 579.255 480.628C574.345 484.234 568.646 488.27 562.158 492.735C555.67 497.201 548.831 501.58 541.641 505.874C534.452 510.167 527.174 514.117 519.81 517.724L517.442 515.148C522.002 509.48 526.648 503.04 531.383 495.827C536.293 488.442 540.765 481.229 544.798 474.187C548.831 466.974 552.075 460.791 554.53 455.639ZM350.68 426.787C363.306 429.191 373.301 432.54 380.666 436.833C388.206 441.127 393.554 445.764 396.711 450.745C399.867 455.553 401.27 460.19 400.919 464.656C400.744 469.121 399.341 472.813 396.711 475.733C394.08 478.653 390.661 480.284 386.452 480.628C382.244 480.799 377.772 479.168 373.038 475.733C372.161 470.237 370.407 464.656 367.777 458.988C365.322 453.149 362.341 447.653 358.834 442.501C355.502 437.177 351.995 432.454 348.313 428.332L350.68 426.787ZM354.099 566.67C356.204 566.67 357.694 566.498 358.571 566.155C359.448 565.64 360.675 564.094 362.253 561.518C363.481 559.629 364.621 557.825 365.673 556.108C366.725 554.219 368.216 551.471 370.144 547.864C372.073 544.258 374.791 538.934 378.298 531.892C381.981 524.851 386.978 515.234 393.291 503.04C399.604 490.674 407.758 474.788 417.753 455.382L421.962 456.67C419.857 462.509 417.403 469.207 414.597 476.763C411.791 484.148 408.985 491.791 406.18 499.691C403.374 507.419 400.656 514.976 398.026 522.361C395.571 529.574 393.379 535.928 391.45 541.424C389.696 546.748 388.381 550.698 387.505 553.274C386.452 557.224 385.488 561.26 384.611 565.382C383.734 569.504 383.384 573.196 383.559 576.459C383.734 580.753 384.699 584.875 386.452 588.825C388.206 592.775 389.872 597.154 391.45 601.963C393.028 606.772 393.642 612.697 393.291 619.738C393.116 626.093 391.099 631.073 387.241 634.68C383.384 638.458 378.298 640.347 371.986 640.347C368.829 640.347 365.936 639.317 363.306 637.256C360.851 635.195 359.185 631.932 358.308 627.467C359.886 618.708 360.763 610.636 360.938 603.251C361.114 595.866 360.763 589.769 359.886 584.961C359.009 579.98 357.519 576.803 355.415 575.429C353.661 574.227 351.732 573.368 349.628 572.853C347.524 572.166 344.981 571.737 342 571.565V566.67C342 566.67 342.789 566.67 344.367 566.67C345.945 566.67 347.699 566.67 349.628 566.67C351.732 566.67 353.223 566.67 354.099 566.67Z" fill="#4C7D7D" fill-opacity="0.55"/>
<path d="M553.747 675.592H598.726V683.063H556.114L553.747 675.592ZM590.046 675.592H587.152L601.882 660.651L628.185 682.548C626.782 684.609 623.538 685.897 618.453 686.412C615.647 701.697 611.439 717.068 605.827 732.525C600.216 747.81 592.413 762.322 582.418 776.061C572.422 789.629 559.622 801.565 544.015 811.869L541.385 809.035C551.731 797.7 560.235 784.648 566.899 769.878C573.562 754.937 578.735 739.394 582.418 723.25C586.1 706.935 588.643 691.049 590.046 675.592ZM654.488 650.089C657.469 669.839 661.678 687.099 667.114 701.869C672.55 716.638 679.038 729.347 686.578 739.995C694.119 750.472 702.273 759.402 711.04 766.787C719.808 774.172 728.926 780.44 738.396 785.593L737.08 788.426C730.592 789.629 724.893 792.978 719.983 798.473C715.249 803.969 711.742 810.409 709.462 817.794C700.87 809.035 693.417 799.59 687.104 789.457C680.792 779.152 675.356 767.56 670.796 754.679C666.237 741.799 662.467 726.857 659.486 709.855C656.505 692.852 654.138 673.188 652.384 650.861L654.488 650.089ZM654.751 615.826V807.232C654.751 814.102 653.875 819.941 652.121 824.75C650.368 829.73 646.597 833.68 640.811 836.6C635.199 839.52 626.432 841.495 614.508 842.525C613.981 837.888 613.192 833.852 612.14 830.417C611.088 827.154 609.422 824.406 607.143 822.174C604.863 819.769 601.794 817.794 597.937 816.249C594.254 814.531 588.73 813.157 581.366 812.127V808.263C581.366 808.263 582.944 808.434 586.1 808.778C589.432 808.95 593.29 809.207 597.674 809.551C602.233 809.722 606.529 809.894 610.562 810.066C614.771 810.238 617.664 810.323 619.242 810.323C621.697 810.323 623.275 809.894 623.977 809.035C624.853 808.177 625.292 806.889 625.292 805.171V605.006L663.958 608.871C663.782 610.588 663.081 612.048 661.853 613.25C660.626 614.452 658.259 615.311 654.751 615.826ZM699.204 646.482L734.187 668.637C733.31 669.839 732.171 670.783 730.768 671.47C729.365 671.986 727.085 671.986 723.929 671.47C719.019 675.077 713.32 679.113 706.832 683.578C700.344 688.043 693.505 692.423 686.315 696.716C679.126 701.01 671.849 704.96 664.484 708.567L662.116 705.99C666.676 700.323 671.322 693.883 676.057 686.669C680.967 679.285 685.439 672.071 689.472 665.03C693.505 657.817 696.749 651.634 699.204 646.482ZM495.354 617.629C507.98 620.034 517.975 623.383 525.34 627.676C532.88 631.97 538.228 636.607 541.385 641.587C544.541 646.396 545.944 651.033 545.593 655.498C545.418 659.964 544.015 663.656 541.385 666.576C538.754 669.495 535.335 671.127 531.126 671.47C526.918 671.642 522.446 670.011 517.712 666.576C516.835 661.08 515.081 655.498 512.451 649.831C509.996 643.992 507.015 638.496 503.508 633.344C500.176 628.02 496.669 623.297 492.987 619.175L495.354 617.629ZM498.773 757.513C500.878 757.513 502.368 757.341 503.245 756.998C504.122 756.482 505.349 754.937 506.927 752.361C508.155 750.472 509.295 748.668 510.347 746.951C511.399 745.062 512.89 742.314 514.818 738.707C516.747 735.101 519.465 729.777 522.972 722.735C526.655 715.694 531.652 706.076 537.965 693.883C544.278 681.517 552.432 665.631 562.427 646.224L566.636 647.512C564.531 653.352 562.077 660.05 559.271 667.606C556.465 674.991 553.659 682.634 550.854 690.534C548.048 698.262 545.33 705.819 542.7 713.204C540.245 720.417 538.053 726.771 536.124 732.267C534.37 737.591 533.055 741.541 532.179 744.117C531.126 748.067 530.162 752.103 529.285 756.225C528.408 760.347 528.058 764.039 528.233 767.302C528.408 771.596 529.373 775.718 531.126 779.668C532.88 783.618 534.546 787.997 536.124 792.806C537.702 797.615 538.316 803.54 537.965 810.581C537.79 816.936 535.773 821.916 531.916 825.523C528.058 829.301 522.972 831.19 516.66 831.19C513.503 831.19 510.61 830.16 507.98 828.099C505.525 826.038 503.859 822.775 502.982 818.309C504.56 809.551 505.437 801.479 505.612 794.094C505.788 786.709 505.437 780.612 504.56 775.803C503.683 770.823 502.193 767.646 500.089 766.272C498.335 765.07 496.406 764.211 494.302 763.696C492.198 763.009 489.655 762.579 486.674 762.408V757.513C486.674 757.513 487.463 757.513 489.041 757.513C490.619 757.513 492.373 757.513 494.302 757.513C496.406 757.513 497.897 757.513 498.773 757.513Z" fill="#419C90" fill-opacity="0.4"/>
<path d="M1229.46 528.055C1228.5 527.062 1228.02 524.954 1228.02 521.73C1228.02 516.769 1228.5 514.289 1229.46 514.289C1231.39 514.289 1234.16 513.917 1237.78 513.173C1241.39 512.429 1244.77 511.437 1247.9 510.197C1251.04 508.709 1252.85 507.344 1253.33 506.104C1254.77 500.4 1255.5 489.487 1255.5 473.365V332.735C1255.5 318.845 1254.77 309.172 1253.33 303.716C1252.85 302.227 1250.92 300.739 1247.54 299.251C1244.41 297.515 1241.03 296.151 1237.42 295.159C1233.8 293.919 1231.03 293.299 1229.1 293.299C1228.14 293.299 1227.65 291.066 1227.65 286.602C1227.65 282.633 1228.02 280.277 1228.74 279.533C1238.38 280.029 1247.54 280.525 1256.22 281.021C1265.14 281.269 1273.7 281.393 1281.89 281.393L1336.49 280.649C1345.41 280.649 1354.45 281.889 1363.61 284.37C1372.77 286.602 1381.69 290.198 1390.37 295.159C1398.81 300.119 1405.68 307.064 1410.98 315.993C1416.29 324.922 1418.94 335.215 1418.94 346.872C1418.94 355.305 1417.13 362.87 1413.51 369.566C1410.14 376.263 1406.16 381.844 1401.58 386.308C1397 390.524 1392.78 393.377 1388.93 394.865C1387 395.609 1386.39 396.353 1387.12 397.097C1392.9 398.089 1398.81 401.19 1404.84 406.398C1411.1 411.607 1416.41 418.551 1420.75 427.232C1425.09 435.665 1427.25 445.586 1427.25 456.995C1427.25 471.133 1423.4 483.534 1415.68 494.199C1407.97 504.864 1397.24 513.049 1383.5 518.754C1369.76 524.21 1353.73 526.814 1335.41 526.566L1282.25 525.822C1275.02 525.822 1266.95 526.07 1258.03 526.566C1249.35 526.814 1242.36 527.062 1237.06 527.31L1229.46 528.055ZM1324.92 388.54C1334.32 388.54 1341.2 387.424 1345.53 385.192C1349.39 383.208 1352.16 381.348 1353.85 379.611C1355.78 377.875 1357.83 374.279 1360 368.822C1362.41 363.118 1363.61 355.925 1363.61 347.244C1363.61 316.489 1352.53 301.111 1330.35 301.111C1319.26 301.111 1312.27 301.607 1309.37 302.6C1307.21 302.848 1306.12 304.336 1306.12 307.064V383.332C1306.12 386.804 1312.39 388.54 1324.92 388.54ZM1335.77 506.104C1360.6 506.104 1373.02 491.099 1373.02 461.088C1373.02 426.612 1358.19 409.374 1328.54 409.374C1321.07 409.374 1314.92 409.994 1310.1 411.235C1307.45 412.475 1306.12 413.591 1306.12 414.583V498.291C1306.12 500.772 1306.96 502.508 1308.65 503.5C1311.06 505.236 1320.1 506.104 1335.77 506.104Z" fill="#72B8B1" fill-opacity="0.6"/>
<path d="M1448.59 528.055C1447.62 527.062 1447.14 524.706 1447.14 520.986C1447.14 517.265 1447.62 515.405 1448.59 515.405C1450.52 515.405 1453.05 514.909 1456.18 513.917C1459.32 512.925 1462.33 511.685 1465.22 510.197C1468.12 508.709 1469.68 507.344 1469.92 506.104C1471.61 499.16 1472.45 489.735 1472.45 477.829V423.512C1472.45 409.622 1470.28 400.321 1465.95 395.609C1464.02 393.129 1461.37 391.393 1457.99 390.4C1454.86 389.408 1452.08 388.788 1449.67 388.54C1447.26 388.044 1446.06 387.548 1446.06 387.052C1446.06 379.859 1446.66 376.263 1447.87 376.263C1450.04 376.263 1454.01 375.767 1459.8 374.775C1465.58 373.783 1471.97 372.543 1478.96 371.055C1486.2 369.566 1492.94 368.078 1499.21 366.59C1505.72 365.102 1510.66 363.862 1514.04 362.87L1518.02 361.754C1519.22 361.754 1520.43 362.622 1521.63 364.358C1522.84 365.846 1523.44 367.086 1523.44 368.078C1522.23 378.991 1521.27 387.548 1520.55 393.749C1519.82 399.949 1519.46 403.794 1519.46 405.282V472.249C1519.46 486.386 1520.43 497.671 1522.35 506.104C1522.84 507.096 1524.4 508.336 1527.06 509.825C1529.95 511.313 1532.96 512.677 1536.1 513.917C1539.23 514.909 1541.4 515.405 1542.6 515.405C1543.33 515.405 1543.69 517.265 1543.69 520.986C1543.93 524.706 1543.81 527.062 1543.33 528.055C1541.4 527.806 1537.3 527.434 1531.03 526.938C1525.01 526.69 1518.62 526.318 1511.87 525.822C1505.12 525.326 1499.82 525.078 1495.96 525.078C1492.1 525.078 1486.8 525.326 1480.05 525.822C1473.3 526.318 1466.91 526.69 1460.88 526.938C1454.86 527.434 1450.76 527.806 1448.59 528.055ZM1494.15 324.922C1486.68 324.922 1480.29 322.318 1474.99 317.109C1469.92 311.652 1467.39 305.08 1467.39 297.391C1467.39 289.702 1469.92 283.254 1474.99 278.045C1480.29 272.588 1486.68 269.86 1494.15 269.86C1501.62 269.86 1507.89 272.588 1512.95 278.045C1518.26 283.254 1520.91 289.702 1520.91 297.391C1520.91 305.08 1518.26 311.652 1512.95 317.109C1507.89 322.318 1501.62 324.922 1494.15 324.922Z" fill="#72B8B1" fill-opacity="0.6"/>
<path d="M1563.94 528.055C1562.97 527.062 1562.49 524.458 1562.49 520.242C1562.49 516.273 1562.97 514.289 1563.94 514.289C1565.87 514.289 1568.52 513.793 1571.89 512.801C1575.51 511.561 1578.88 510.197 1582.02 508.709C1585.39 507.22 1587.2 505.98 1587.44 504.988C1589.13 498.043 1589.97 488.618 1589.97 476.713V425.744C1589.97 411.855 1587.8 402.554 1583.46 397.841C1581.54 395.361 1578.88 393.625 1575.51 392.633C1572.38 391.641 1569.6 391.021 1567.19 390.773C1564.78 390.276 1563.58 389.78 1563.58 389.284C1563.58 380.603 1564.18 376.263 1565.38 376.263C1571.65 376.263 1580.57 374.899 1592.14 372.171C1603.71 369.194 1616.85 366.094 1631.56 362.87L1633.36 362.498C1633.61 362.25 1634.09 362.126 1634.81 362.126L1635.53 361.754C1636.74 361.754 1637.94 362.622 1639.15 364.358C1640.6 365.846 1641.2 367.086 1640.96 368.078L1639.51 379.611C1639.51 380.852 1639.63 381.596 1639.87 381.844C1640.36 381.844 1641.2 381.224 1642.4 379.983C1655.66 367.086 1672.42 360.637 1692.67 360.637C1706.65 360.637 1717.98 366.714 1726.66 378.867C1735.58 391.021 1740.04 409.498 1740.04 434.301V471.133C1740.04 487.502 1740.88 498.788 1742.57 504.988C1743.05 505.98 1744.86 507.22 1747.99 508.709C1751.12 510.197 1754.38 511.561 1757.75 512.801C1761.37 513.793 1763.9 514.289 1765.35 514.289C1765.83 514.289 1766.19 515.281 1766.43 517.265C1766.67 519.25 1766.79 521.358 1766.79 523.59C1766.79 525.822 1766.55 527.31 1766.07 528.055C1764.62 528.055 1761.85 527.806 1757.75 527.31C1753.66 527.062 1748.83 526.814 1743.29 526.566C1737.99 526.07 1732.92 525.698 1728.1 525.45C1723.28 525.202 1719.42 525.078 1716.53 525.078C1712.67 525.078 1707.25 525.326 1700.26 525.822C1693.51 526.318 1687 526.69 1680.73 526.938C1674.47 527.434 1670.37 527.806 1668.44 528.055C1667.48 527.062 1666.99 524.458 1666.99 520.242C1666.99 516.273 1667.48 514.289 1668.44 514.289C1670.37 514.289 1672.9 513.793 1676.03 512.801C1679.41 511.561 1682.54 510.197 1685.43 508.709C1688.57 507.22 1690.26 505.98 1690.5 504.988C1692.18 498.043 1693.03 488.618 1693.03 476.713V443.23C1693.03 424.876 1690.5 411.855 1685.43 404.166C1680.61 396.229 1672.78 392.261 1661.93 392.261C1654.46 392.261 1648.43 393.749 1643.85 396.725C1639.27 399.453 1636.98 403.422 1636.98 408.63V471.133C1636.98 487.502 1637.82 498.788 1639.51 504.988C1639.99 505.98 1641.68 507.22 1644.57 508.709C1647.47 510.197 1650.6 511.561 1653.98 512.801C1657.35 513.793 1659.64 514.289 1660.85 514.289C1661.33 514.289 1661.69 515.281 1661.93 517.265C1662.17 519.25 1662.29 521.358 1662.29 523.59C1662.29 525.822 1662.05 527.31 1661.57 528.055C1659.64 527.806 1655.54 527.434 1649.27 526.938C1643.01 526.69 1636.38 526.318 1629.39 525.822C1622.64 525.326 1617.33 525.078 1613.48 525.078C1610.58 525.078 1606.61 525.202 1601.54 525.45C1596.72 525.698 1591.66 526.07 1586.36 526.566C1581.05 526.814 1576.35 527.062 1572.25 527.31C1568.16 527.806 1565.38 528.055 1563.94 528.055Z" fill="#72B8B1" fill-opacity="0.6"/>
<path d="M1847.43 607.671C1835.38 607.671 1824.41 605.934 1814.52 602.462C1804.64 599.238 1796.81 594.525 1791.02 588.325C1785.23 582.124 1782.34 574.931 1782.34 566.746C1782.34 561.29 1785.11 555.461 1790.66 549.261C1796.44 543.06 1803.56 538.596 1811.99 535.867C1805.73 533.139 1800.06 528.799 1795 522.846C1789.94 516.645 1787.4 509.949 1787.4 502.756C1787.4 496.555 1790.06 491.223 1795.36 486.758C1800.9 482.294 1807.41 477.953 1814.89 473.737C1810.31 471.009 1805.85 466.916 1801.51 461.46C1797.17 456.003 1793.67 449.803 1791.02 442.858C1788.37 435.665 1787.04 428.596 1787.04 421.652C1787.04 408.01 1790.06 396.601 1796.08 387.424C1802.11 378.247 1810.19 371.303 1820.31 366.59C1830.68 361.878 1842.13 359.521 1854.66 359.521C1863.58 359.521 1873.83 361.133 1885.4 364.358C1891.18 366.094 1896.37 367.334 1900.95 368.078C1905.77 368.822 1909.86 369.194 1913.24 369.194H1933.13C1933.61 369.194 1934.33 370.31 1935.3 372.543C1936.5 374.775 1937.59 377.131 1938.55 379.611C1939.52 381.844 1940 383.58 1940 384.82C1940 388.292 1939.27 390.028 1937.83 390.028H1916.49C1915.53 390.276 1915.05 390.649 1915.05 391.145L1917.94 401.19C1918.66 404.414 1919.27 407.638 1919.75 410.863C1920.23 414.087 1920.47 417.063 1920.47 419.791C1920.47 430.209 1917.58 440.13 1911.79 449.555C1906.25 458.979 1898.66 466.792 1889.01 472.993C1879.37 478.945 1868.28 481.922 1855.75 481.922C1850.92 481.922 1846.47 481.798 1842.37 481.55C1838.27 481.054 1834.53 480.558 1831.16 480.062C1828.02 481.054 1825.73 482.79 1824.29 485.27C1823.08 487.75 1822.48 489.735 1822.48 491.223C1822.48 493.455 1824.53 495.191 1828.63 496.431C1832 497.423 1837.06 498.291 1843.81 499.036C1850.56 499.78 1857.31 500.276 1864.06 500.524C1870.81 500.772 1876 500.896 1879.61 500.896C1917.94 502.632 1937.35 515.653 1937.83 539.96C1937.83 549.137 1935.18 557.818 1929.87 566.002C1924.81 574.187 1917.82 581.38 1908.9 587.581C1900.22 593.781 1890.46 598.618 1879.61 602.09C1869 605.81 1858.28 607.671 1847.43 607.671ZM1854.3 462.576C1863.46 462.576 1869 459.103 1870.93 452.159C1872.86 445.214 1873.83 436.781 1873.83 426.86C1873.83 410.987 1872.38 399.081 1869.49 391.145C1866.59 383.208 1860.81 379.239 1852.13 379.239C1846.34 379.239 1842.13 380.976 1839.47 384.448C1836.82 387.92 1835.14 392.385 1834.41 397.841C1833.93 403.298 1833.69 409.126 1833.69 415.327V417.187C1833.69 425.124 1834.17 432.565 1835.14 439.509C1836.1 446.454 1838.03 452.035 1840.92 456.251C1843.81 460.468 1848.27 462.576 1854.3 462.576ZM1853.58 584.976C1866.11 584.976 1876.24 582.62 1883.95 577.908C1891.91 573.195 1895.88 566.126 1895.88 556.701C1895.88 545.54 1875.63 539.96 1835.14 539.96C1829.11 541.696 1824.53 543.804 1821.39 546.284C1818.26 548.765 1816.69 552.857 1816.69 558.562C1816.69 566.002 1820.43 572.203 1827.9 577.164C1835.62 582.372 1844.18 584.976 1853.58 584.976Z" fill="#72B8B1" fill-opacity="0.6"/>
<path d="M1960.61 528.055C1959.64 527.062 1959.16 524.954 1959.16 521.73C1959.16 516.769 1959.64 514.289 1960.61 514.289C1962.54 514.289 1965.31 513.917 1968.93 513.173C1972.54 512.429 1975.92 511.437 1979.05 510.197C1982.18 508.709 1983.99 507.344 1984.47 506.104C1985.92 500.4 1986.64 489.487 1986.64 473.365V332.735C1986.64 318.845 1985.92 309.172 1984.47 303.716C1983.99 302.227 1982.06 300.739 1978.69 299.251C1975.55 297.515 1972.18 296.151 1968.56 295.159C1964.95 293.919 1962.18 293.299 1960.25 293.299C1959.28 293.299 1958.8 291.066 1958.8 286.602C1958.8 282.633 1959.16 280.277 1959.89 279.533C1969.53 280.029 1978.69 280.525 1987.37 281.021C1996.29 281.269 2004.84 281.393 2013.04 281.393L2067.64 280.649C2076.56 280.649 2085.6 281.889 2094.76 284.37C2103.92 286.602 2112.84 290.198 2121.52 295.159C2129.96 300.119 2136.83 307.064 2142.13 315.993C2147.43 324.922 2150.09 335.215 2150.09 346.872C2150.09 355.305 2148.28 362.87 2144.66 369.566C2141.29 376.263 2137.31 381.844 2132.73 386.308C2128.15 390.524 2123.93 393.377 2120.07 394.865C2118.14 395.609 2117.54 396.353 2118.26 397.097C2124.05 398.089 2129.96 401.19 2135.98 406.398C2142.25 411.607 2147.55 418.551 2151.89 427.232C2156.23 435.665 2158.4 445.586 2158.4 456.995C2158.4 471.133 2154.54 483.534 2146.83 494.199C2139.12 504.864 2128.39 513.049 2114.65 518.754C2100.91 524.21 2084.88 526.814 2066.56 526.566L2013.4 525.822C2006.17 525.822 1998.09 526.07 1989.18 526.566C1980.5 526.814 1973.51 527.062 1968.2 527.31L1960.61 528.055ZM2056.07 388.54C2065.47 388.54 2072.34 387.424 2076.68 385.192C2080.54 383.208 2083.31 381.348 2085 379.611C2086.93 377.875 2088.98 374.279 2091.15 368.822C2093.56 363.118 2094.76 355.925 2094.76 347.244C2094.76 316.489 2083.67 301.111 2061.49 301.111C2050.41 301.111 2043.41 301.607 2040.52 302.6C2038.35 302.848 2037.27 304.336 2037.27 307.064V383.332C2037.27 386.804 2043.53 388.54 2056.07 388.54ZM2066.92 506.104C2091.75 506.104 2104.16 491.099 2104.16 461.088C2104.16 426.612 2089.34 409.374 2059.69 409.374C2052.21 409.374 2046.07 409.994 2041.24 411.235C2038.59 412.475 2037.27 413.591 2037.27 414.583V498.291C2037.27 500.772 2038.11 502.508 2039.8 503.5C2042.21 505.236 2051.25 506.104 2066.92 506.104Z" fill="#72B8B1" fill-opacity="0.6"/>
<path d="M2179.74 528.055C2178.77 527.062 2178.29 524.706 2178.29 520.986C2178.29 517.265 2178.77 515.405 2179.74 515.405C2181.66 515.405 2184.2 514.909 2187.33 513.917C2190.46 512.925 2193.48 511.685 2196.37 510.197C2199.26 508.709 2200.83 507.344 2201.07 506.104C2202.76 499.16 2203.6 489.735 2203.6 477.829V423.512C2203.6 409.622 2201.43 400.321 2197.09 395.609C2195.16 393.129 2192.51 391.393 2189.14 390.4C2186 389.408 2183.23 388.788 2180.82 388.54C2178.41 388.044 2177.2 387.548 2177.2 387.052C2177.2 379.859 2177.81 376.263 2179.01 376.263C2181.18 376.263 2185.16 375.767 2190.95 374.775C2196.73 373.783 2203.12 372.543 2210.11 371.055C2217.34 369.566 2224.09 368.078 2230.36 366.59C2236.87 365.102 2241.81 363.862 2245.18 362.87L2249.16 361.754C2250.37 361.754 2251.57 362.622 2252.78 364.358C2253.98 365.846 2254.59 367.086 2254.59 368.078C2253.38 378.991 2252.42 387.548 2251.69 393.749C2250.97 399.949 2250.61 403.794 2250.61 405.282V472.249C2250.61 486.386 2251.57 497.671 2253.5 506.104C2253.98 507.096 2255.55 508.336 2258.2 509.825C2261.1 511.313 2264.11 512.677 2267.24 513.917C2270.38 514.909 2272.55 515.405 2273.75 515.405C2274.47 515.405 2274.84 517.265 2274.84 520.986C2275.08 524.706 2274.96 527.062 2274.47 528.055C2272.55 527.806 2268.45 527.434 2262.18 526.938C2256.15 526.69 2249.77 526.318 2243.02 525.822C2236.27 525.326 2230.96 525.078 2227.11 525.078C2223.25 525.078 2217.94 525.326 2211.19 525.822C2204.45 526.318 2198.06 526.69 2192.03 526.938C2186 527.434 2181.91 527.806 2179.74 528.055ZM2225.3 324.922C2217.82 324.922 2211.44 322.318 2206.13 317.109C2201.07 311.652 2198.54 305.08 2198.54 297.391C2198.54 289.702 2201.07 283.254 2206.13 278.045C2211.44 272.588 2217.82 269.86 2225.3 269.86C2232.77 269.86 2239.04 272.588 2244.1 278.045C2249.4 283.254 2252.06 289.702 2252.06 297.391C2252.06 305.08 2249.4 311.652 2244.1 317.109C2239.04 322.318 2232.77 324.922 2225.3 324.922Z" fill="#72B8B1" fill-opacity="0.6"/>
<path d="M2295.09 528.055C2294.12 527.062 2293.64 524.458 2293.64 520.242C2293.64 516.273 2294.12 514.289 2295.09 514.289C2297.01 514.289 2299.67 513.793 2303.04 512.801C2306.66 511.561 2310.03 510.197 2313.16 508.709C2316.54 507.22 2318.35 505.98 2318.59 504.988C2320.28 498.043 2321.12 488.618 2321.12 476.713V425.744C2321.12 411.855 2318.95 402.554 2314.61 397.841C2312.68 395.361 2310.03 393.625 2306.66 392.633C2303.52 391.641 2300.75 391.021 2298.34 390.773C2295.93 390.276 2294.72 389.78 2294.72 389.284C2294.72 380.603 2295.33 376.263 2296.53 376.263C2302.8 376.263 2311.72 374.899 2323.29 372.171C2334.86 369.194 2348 366.094 2362.7 362.87L2364.51 362.498C2364.75 362.25 2365.23 362.126 2365.96 362.126L2366.68 361.754C2367.89 361.754 2369.09 362.622 2370.3 364.358C2371.74 365.846 2372.35 367.086 2372.11 368.078L2370.66 379.611C2370.66 380.852 2370.78 381.596 2371.02 381.844C2371.5 381.844 2372.35 381.224 2373.55 379.983C2386.81 367.086 2403.56 360.637 2423.81 360.637C2437.8 360.637 2449.13 366.714 2457.8 378.867C2466.72 391.021 2471.18 409.498 2471.18 434.301V471.133C2471.18 487.502 2472.03 498.788 2473.71 504.988C2474.2 505.98 2476 507.22 2479.14 508.709C2482.27 510.197 2485.53 511.561 2488.9 512.801C2492.52 513.793 2495.05 514.289 2496.49 514.289C2496.98 514.289 2497.34 515.281 2497.58 517.265C2497.82 519.25 2497.94 521.358 2497.94 523.59C2497.94 525.822 2497.7 527.31 2497.22 528.055C2495.77 528.055 2493 527.806 2488.9 527.31C2484.8 527.062 2479.98 526.814 2474.44 526.566C2469.13 526.07 2464.07 525.698 2459.25 525.45C2454.43 525.202 2450.57 525.078 2447.68 525.078C2443.82 525.078 2438.4 525.326 2431.41 525.822C2424.66 526.318 2418.15 526.69 2411.88 526.938C2405.61 527.434 2401.51 527.806 2399.59 528.055C2398.62 527.062 2398.14 524.458 2398.14 520.242C2398.14 516.273 2398.62 514.289 2399.59 514.289C2401.51 514.289 2404.05 513.793 2407.18 512.801C2410.55 511.561 2413.69 510.197 2416.58 508.709C2419.72 507.22 2421.4 505.98 2421.64 504.988C2423.33 498.043 2424.17 488.618 2424.17 476.713V443.23C2424.17 424.876 2421.64 411.855 2416.58 404.166C2411.76 396.229 2403.93 392.261 2393.08 392.261C2385.6 392.261 2379.58 393.749 2375 396.725C2370.42 399.453 2368.13 403.422 2368.13 408.63V471.133C2368.13 487.502 2368.97 498.788 2370.66 504.988C2371.14 505.98 2372.83 507.22 2375.72 508.709C2378.61 510.197 2381.75 511.561 2385.12 512.801C2388.5 513.793 2390.79 514.289 2391.99 514.289C2392.48 514.289 2392.84 515.281 2393.08 517.265C2393.32 519.25 2393.44 521.358 2393.44 523.59C2393.44 525.822 2393.2 527.31 2392.72 528.055C2390.79 527.806 2386.69 527.434 2380.42 526.938C2374.15 526.69 2367.52 526.318 2360.53 525.822C2353.78 525.326 2348.48 525.078 2344.62 525.078C2341.73 525.078 2337.75 525.202 2332.69 525.45C2327.87 525.698 2322.81 526.07 2317.5 526.566C2312.2 526.814 2307.5 527.062 2303.4 527.31C2299.3 527.806 2296.53 528.055 2295.09 528.055Z" fill="#72B8B1" fill-opacity="0.6"/>
<path d="M2578.58 607.671C2566.52 607.671 2555.55 605.934 2545.67 602.462C2535.79 599.238 2527.95 594.525 2522.17 588.325C2516.38 582.124 2513.49 574.931 2513.49 566.746C2513.49 561.29 2516.26 555.461 2521.81 549.261C2527.59 543.06 2534.7 538.596 2543.14 535.867C2536.87 533.139 2531.21 528.799 2526.15 522.846C2521.08 516.645 2518.55 509.949 2518.55 502.756C2518.55 496.555 2521.2 491.223 2526.51 486.758C2532.05 482.294 2538.56 477.953 2546.03 473.737C2541.45 471.009 2536.99 466.916 2532.65 461.46C2528.31 456.003 2524.82 449.803 2522.17 442.858C2519.52 435.665 2518.19 428.596 2518.19 421.652C2518.19 408.01 2521.2 396.601 2527.23 387.424C2533.26 378.247 2541.33 371.303 2551.46 366.59C2561.82 361.878 2573.27 359.521 2585.81 359.521C2594.73 359.521 2604.97 361.133 2616.54 364.358C2622.33 366.094 2627.51 367.334 2632.09 368.078C2636.91 368.822 2641.01 369.194 2644.39 369.194H2664.27C2664.76 369.194 2665.48 370.31 2666.44 372.543C2667.65 374.775 2668.73 377.131 2669.7 379.611C2670.66 381.844 2671.14 383.58 2671.14 384.82C2671.14 388.292 2670.42 390.028 2668.98 390.028H2647.64C2646.68 390.276 2646.19 390.649 2646.19 391.145L2649.09 401.19C2649.81 404.414 2650.41 407.638 2650.9 410.863C2651.38 414.087 2651.62 417.063 2651.62 419.791C2651.62 430.209 2648.73 440.13 2642.94 449.555C2637.4 458.979 2629.8 466.792 2620.16 472.993C2610.52 478.945 2599.43 481.922 2586.89 481.922C2582.07 481.922 2577.61 481.798 2573.51 481.55C2569.42 481.054 2565.68 480.558 2562.3 480.062C2559.17 481.054 2556.88 482.79 2555.43 485.27C2554.23 487.75 2553.63 489.735 2553.63 491.223C2553.63 493.455 2555.68 495.191 2559.77 496.431C2563.15 497.423 2568.21 498.291 2574.96 499.036C2581.71 499.78 2588.46 500.276 2595.21 500.524C2601.96 500.772 2607.14 500.896 2610.76 500.896C2649.09 502.632 2668.49 515.653 2668.98 539.96C2668.98 549.137 2666.32 557.818 2661.02 566.002C2655.96 574.187 2648.97 581.38 2640.05 587.581C2631.37 593.781 2621.61 598.618 2610.76 602.09C2600.15 605.81 2589.42 607.671 2578.58 607.671ZM2585.45 462.576C2594.61 462.576 2600.15 459.103 2602.08 452.159C2604.01 445.214 2604.97 436.781 2604.97 426.86C2604.97 410.987 2603.53 399.081 2600.63 391.145C2597.74 383.208 2591.96 379.239 2583.28 379.239C2577.49 379.239 2573.27 380.976 2570.62 384.448C2567.97 387.92 2566.28 392.385 2565.56 397.841C2565.08 403.298 2564.84 409.126 2564.84 415.327V417.187C2564.84 425.124 2565.32 432.565 2566.28 439.509C2567.25 446.454 2569.17 452.035 2572.07 456.251C2574.96 460.468 2579.42 462.576 2585.45 462.576ZM2584.72 584.976C2597.26 584.976 2607.38 582.62 2615.1 577.908C2623.05 573.195 2627.03 566.126 2627.03 556.701C2627.03 545.54 2606.78 539.96 2566.28 539.96C2560.26 541.696 2555.68 543.804 2552.54 546.284C2549.41 548.765 2547.84 552.857 2547.84 558.562C2547.84 566.002 2551.58 572.203 2559.05 577.164C2566.76 582.372 2575.32 584.976 2584.72 584.976Z" fill="#72B8B1" fill-opacity="0.6"/>
<path d="M2746 607.671C2737.8 607.671 2730.93 605.438 2725.38 600.974C2721.77 595.021 2719.96 588.573 2719.96 581.628C2719.96 575.427 2722.25 570.095 2726.83 565.63C2731.41 561.166 2736.71 558.934 2742.74 558.934C2748.53 558.934 2754.79 562.778 2761.54 570.467C2768.05 577.908 2772.99 581.628 2776.37 581.628C2787.22 581.628 2794.21 572.947 2797.34 555.585C2799.03 546.904 2800.23 535.991 2800.96 522.846C2801.92 509.453 2802.4 493.951 2802.4 476.341V332.363C2802.4 316.489 2801.44 306.816 2799.51 303.344C2798.79 301.855 2796.86 300.491 2793.73 299.251C2790.83 297.763 2787.82 296.523 2784.69 295.531C2781.55 294.539 2779.02 294.043 2777.09 294.043C2776.13 294.043 2775.65 291.934 2775.65 287.718C2775.65 283.254 2775.89 280.773 2776.37 280.277L2828.8 282.509C2831.21 282.758 2836.64 282.633 2845.07 282.137C2853.51 281.641 2864.96 281.021 2879.42 280.277C2880.15 282.509 2880.51 284.742 2880.51 286.974C2880.51 291.686 2880.03 294.043 2879.06 294.043C2877.62 294.043 2875.09 294.539 2871.47 295.531C2867.85 296.523 2864.36 297.763 2860.98 299.251C2857.85 300.491 2856.04 301.731 2855.56 302.972C2853.87 309.172 2853.03 319.713 2853.03 334.595V473.365C2853.03 501.392 2848.69 525.45 2840.01 545.54C2831.33 565.63 2819.04 581.008 2803.13 591.673C2787.22 602.338 2768.17 607.671 2746 607.671Z" fill="#72B8B1" fill-opacity="0.6"/>
<path d="M2943.43 529.171C2930.17 529.171 2919.56 525.45 2911.61 518.009C2903.89 510.321 2900.04 500.772 2900.04 489.363C2900.04 479.69 2902.93 471.257 2908.71 464.064C2914.74 456.871 2922.21 451.167 2931.13 446.95C2934.51 445.462 2937.64 444.222 2940.53 443.23C2943.43 441.99 2946.08 440.874 2948.49 439.882C2957.65 436.905 2965 434.797 2970.55 433.557C2976.09 432.069 2980.19 430.829 2982.84 429.836C2985.01 429.092 2986.1 427.232 2986.1 424.256V410.863C2986.1 390.524 2980.07 380.355 2968.02 380.355C2954.03 380.355 2947.04 388.664 2947.04 405.282C2947.04 410.739 2944.87 414.831 2940.53 417.559C2936.19 420.039 2931.37 421.28 2926.07 421.28C2914.98 421.28 2907.39 417.559 2903.29 410.118C2903.29 403.67 2905.46 397.469 2909.8 391.517C2914.38 385.564 2920.28 380.231 2927.52 375.519C2934.99 370.558 2943.31 366.714 2952.47 363.986C2961.87 361.009 2971.27 359.521 2980.67 359.521C2997.55 359.521 3010.44 364.358 3019.36 374.031C3028.52 383.456 3033.1 400.694 3033.1 425.744V486.014C3033.1 494.447 3036 498.664 3041.78 498.664C3046.12 498.664 3050.22 497.051 3054.08 493.827C3055.76 494.819 3056.61 496.679 3056.61 499.408C3056.61 505.856 3055.76 510.445 3054.08 513.173C3050.7 516.397 3045.16 519.87 3037.44 523.59C3029.97 527.062 3022.86 528.799 3016.11 528.799C3010.32 528.799 3004.78 527.062 2999.47 523.59C2994.17 519.87 2990.68 515.653 2988.99 510.941C2988.75 510.941 2987.42 511.809 2985.01 513.545C2982.6 515.281 2980.79 516.645 2979.59 517.637C2974.77 520.862 2969.22 523.59 2962.95 525.822C2956.69 528.055 2950.18 529.171 2943.43 529.171ZM2966.21 502.384C2972.47 502.384 2977.3 500.896 2980.67 497.919C2984.29 494.695 2986.1 490.851 2986.1 486.386V448.81L2967.29 455.507C2962.23 457.243 2957.53 459.848 2953.19 463.32C2949.09 466.792 2947.04 471.381 2947.04 477.085C2947.04 486.014 2948.85 492.463 2952.47 496.431C2956.32 500.4 2960.9 502.384 2966.21 502.384Z" fill="#72B8B1" fill-opacity="0.6"/>
<path d="M3147.37 528.799C3134.35 528.799 3122.06 525.45 3110.48 518.754C3099.15 512.057 3089.87 502.632 3082.64 490.479C3075.65 478.325 3072.15 464.064 3072.15 447.694C3072.15 431.077 3075.89 416.195 3083.36 403.05C3091.08 389.904 3101.44 379.487 3114.46 371.799C3127.72 364.11 3142.55 360.265 3158.94 360.265C3169.06 360.265 3177.5 361.382 3184.25 363.614C3184.97 363.614 3185.33 361.878 3185.33 358.405V329.014C3185.33 318.597 3184.61 309.668 3183.16 302.227C3182.2 298.259 3175.93 296.275 3164.36 296.275H3161.11C3159.66 296.275 3158.94 293.795 3158.94 288.834C3158.94 284.618 3159.66 282.509 3161.11 282.509C3175.09 281.269 3188.23 279.161 3200.52 276.185C3213.06 273.209 3221.98 270.852 3227.28 269.116L3230.9 268H3231.62C3232.58 268 3233.55 268.744 3234.51 270.232C3235.48 271.72 3236.08 273.085 3236.32 274.325C3233.67 285.982 3232.34 298.507 3232.34 311.9V471.877C3232.34 477.333 3232.58 483.286 3233.07 489.735C3233.55 495.935 3234.63 499.904 3236.32 501.64C3238.25 503.128 3240.42 503.996 3242.83 504.244C3245.24 504.244 3248.37 504.492 3252.23 504.988L3255.85 505.36C3256.57 505.608 3256.93 507.096 3256.93 509.825C3256.93 516.025 3256.21 519.126 3254.76 519.126C3248.73 519.374 3241.74 520.118 3233.79 521.358C3226.07 522.598 3218.48 523.838 3211.01 525.078C3203.53 526.318 3197.51 527.31 3192.93 528.055L3187.5 528.799C3186.06 529.047 3185.33 526.938 3185.33 522.474V514.661C3185.33 512.677 3184.85 512.181 3183.89 513.173C3173.76 523.59 3161.59 528.799 3147.37 528.799ZM3156.77 506.104C3164.96 506.104 3171.71 503.748 3177.02 499.036C3182.56 494.075 3185.33 488.122 3185.33 481.178V413.467C3185.33 410.491 3185.09 407.638 3184.61 404.91C3184.13 402.182 3183.04 398.709 3181.36 394.493C3179.67 390.276 3176.66 386.928 3172.32 384.448C3168.22 381.72 3163.04 380.355 3156.77 380.355C3145.44 380.355 3137.12 385.068 3131.82 394.493C3126.76 403.67 3124.22 418.427 3124.22 438.765C3124.22 483.658 3135.07 506.104 3156.77 506.104Z" fill="#72B8B1" fill-opacity="0.6"/>
<path d="M3352.75 529.171C3338.05 529.171 3324.43 525.326 3311.89 517.637C3299.6 509.949 3289.72 499.656 3282.24 486.758C3275.01 473.861 3271.39 459.724 3271.39 444.346C3271.39 428.472 3274.65 414.211 3281.16 401.562C3287.91 388.912 3297.19 378.867 3309 371.427C3320.81 363.986 3334.43 360.265 3349.86 360.265C3365.05 360.265 3377.94 363.986 3388.55 371.427C3399.4 378.619 3407.6 387.672 3413.14 398.585C3418.93 409.25 3421.82 420.039 3421.82 430.953C3421.82 436.657 3420.61 440.378 3418.2 442.114C3416.03 443.85 3411.57 444.718 3404.82 444.718H3323.1C3321.66 444.718 3320.93 445.586 3320.93 447.322C3320.93 456.251 3322.5 464.684 3325.63 472.621C3329.01 480.558 3333.83 487.006 3340.1 491.967C3346.61 496.927 3354.44 499.408 3363.6 499.408C3371.8 499.408 3379.39 498.167 3386.38 495.687C3391.2 494.199 3394.94 492.835 3397.59 491.595C3400.24 490.355 3402.65 488.991 3404.82 487.502C3407.23 485.766 3410.01 483.658 3413.14 481.178C3415.31 482.17 3416.39 484.526 3416.39 488.246C3416.39 491.471 3415.91 493.951 3414.95 495.687C3413.5 499.656 3409.64 504.244 3403.38 509.453C3397.35 514.661 3389.88 519.25 3380.96 523.218C3372.28 527.186 3362.88 529.171 3352.75 529.171ZM3323.46 424.256H3369.39C3372.76 424.256 3374.45 421.9 3374.45 417.187C3374.45 407.762 3371.92 399.329 3366.86 391.889C3362.03 384.448 3355.77 380.727 3348.05 380.727C3341.06 380.727 3335.52 383.332 3331.42 388.54C3327.56 393.501 3324.79 399.081 3323.1 405.282C3321.66 411.483 3320.93 416.567 3320.93 420.536C3320.93 423.016 3321.78 424.256 3323.46 424.256Z" fill="#72B8B1" fill-opacity="0.6"/>
<path d="M1218 672L3490 687" stroke="#9ED9CB" stroke-opacity="0.42" stroke-width="8"/>
<path d="M1295.71 812.021V898.604H1282.15L1242.5 839.628H1241.8V898.604H1226.55V812.021H1240.19L1279.81 871.04H1280.55V812.021H1295.71Z" fill="#86A79F" fill-opacity="0.5"/>
<path d="M1323.13 898.604H1306.85L1336.48 812.021H1355.3L1384.97 898.604H1368.69L1346.22 829.777H1345.56L1323.13 898.604ZM1323.66 864.656H1368.04V877.254H1323.66V864.656Z" fill="#86A79F" fill-opacity="0.5"/>
<path d="M1382.18 825.169V812.021H1449.32V825.169H1423.31V898.604H1408.19V825.169H1382.18Z" fill="#86A79F" fill-opacity="0.5"/>
<path d="M1515.32 812.021H1530.56V868.588C1530.56 874.788 1529.14 880.242 1526.29 884.949C1523.47 889.656 1519.49 893.334 1514.37 895.983C1509.25 898.604 1503.26 899.915 1496.41 899.915C1489.54 899.915 1483.54 898.604 1478.42 895.983C1473.29 893.334 1469.32 889.656 1466.5 884.949C1463.68 880.242 1462.27 874.788 1462.27 868.588V812.021H1477.51V867.277C1477.51 870.885 1478.28 874.098 1479.81 876.916C1481.38 879.735 1483.57 881.947 1486.39 883.554C1489.21 885.132 1492.55 885.921 1496.41 885.921C1500.28 885.921 1503.62 885.132 1506.44 883.554C1509.29 881.947 1511.48 879.735 1513.01 876.916C1514.55 874.098 1515.32 870.885 1515.32 867.277V812.021Z" fill="#86A79F" fill-opacity="0.5"/>
<path d="M1547.13 898.604V812.021H1578.69C1585.15 812.021 1590.58 813.176 1594.96 815.488C1599.37 817.799 1602.7 821.04 1604.94 825.211C1607.22 829.354 1608.36 834.188 1608.36 839.712C1608.36 845.265 1607.2 850.084 1604.9 854.171C1602.63 858.23 1599.27 861.372 1594.84 863.599C1590.4 865.797 1584.95 866.896 1578.48 866.896H1556.01V853.875H1576.43C1580.21 853.875 1583.3 853.34 1585.71 852.269C1588.12 851.169 1589.91 849.577 1591.06 847.491C1592.23 845.377 1592.82 842.784 1592.82 839.712C1592.82 836.64 1592.23 834.019 1591.06 831.849C1589.88 829.65 1588.08 827.988 1585.67 826.86C1583.26 825.705 1580.15 825.127 1576.35 825.127H1562.37V898.604H1547.13ZM1590.6 859.371L1611.44 898.604H1594.43L1573.96 859.371H1590.6Z" fill="#86A79F" fill-opacity="0.5"/>
<path d="M1633.19 898.604H1616.92L1646.55 812.021H1665.37L1695.04 898.604H1678.76L1656.29 829.777H1655.63L1633.19 898.604ZM1633.73 864.656H1678.11V877.254H1633.73V864.656Z" fill="#86A79F" fill-opacity="0.5"/>
<path d="M1706.12 898.604V812.021H1721.36V885.456H1758.43V898.604H1706.12Z" fill="#86A79F" fill-opacity="0.5"/>
<path d="M1833.56 812.021H1848.68V872.9C1848.66 878.48 1847.5 883.286 1845.23 887.316C1842.96 891.318 1839.78 894.405 1835.7 896.575C1831.64 898.717 1826.92 899.788 1821.52 899.788C1816.59 899.788 1812.15 898.886 1808.21 897.082C1804.29 895.25 1801.18 892.545 1798.88 888.965C1796.58 885.386 1795.43 880.932 1795.43 875.606H1810.59C1810.62 877.945 1811.11 879.96 1812.07 881.651C1813.06 883.342 1814.41 884.639 1816.14 885.541C1817.86 886.443 1819.85 886.893 1822.1 886.893C1824.54 886.893 1826.6 886.372 1828.3 885.329C1830 884.258 1831.29 882.68 1832.16 880.594C1833.07 878.509 1833.53 875.944 1833.56 872.9V812.021Z" fill="#86A79F" fill-opacity="0.5"/>
<path d="M1876.03 898.604H1859.76L1889.38 812.021H1908.2L1937.87 898.604H1921.6L1899.12 829.777H1898.46L1876.03 898.604ZM1876.56 864.656H1920.94V877.254H1876.56V864.656Z" fill="#86A79F" fill-opacity="0.5"/>
<path d="M1977.47 898.604H1948.95V812.021H1978.05C1986.4 812.021 1993.58 813.754 1999.58 817.221C2005.6 820.659 2010.23 825.606 2013.47 832.06C2016.7 838.514 2018.31 846.237 2018.31 855.228C2018.31 864.247 2016.68 871.998 2013.42 878.48C2010.19 884.963 2005.52 889.937 1999.41 893.404C1993.33 896.871 1986.02 898.604 1977.47 898.604ZM1964.2 885.033H1976.73C1982.59 885.033 1987.48 883.934 1991.4 881.736C1995.32 879.509 1998.26 876.197 2000.23 871.801C2002.21 867.376 2003.19 861.851 2003.19 855.228C2003.19 848.605 2002.21 843.109 2000.23 838.74C1998.26 834.343 1995.34 831.06 1991.48 828.889C1987.65 826.691 1982.88 825.592 1977.18 825.592H1964.2V885.033Z" fill="#86A79F" fill-opacity="0.5"/>
<path d="M2032.8 898.604V812.021H2087.53V825.169H2048.04V848.675H2084.7V861.823H2048.04V885.456H2087.86V898.604H2032.8Z" fill="#86A79F" fill-opacity="0.5"/>
<path d="M2118.33 812.021V898.604H2103.08V812.021H2118.33Z" fill="#86A79F" fill-opacity="0.5"/>
<path d="M2131.14 825.169V812.021H2198.28V825.169H2172.27V898.604H2157.15V825.169H2131.14Z" fill="#86A79F" fill-opacity="0.5"/>
<path d="M2211.22 898.604V812.021H2265.96V825.169H2226.47V848.675H2263.12V861.823H2226.47V885.456H2266.29V898.604H2211.22Z" fill="#86A79F" fill-opacity="0.5"/>
<path d="M1252.39 1061.35H1273.91V1064.8H1253.43L1252.39 1061.35ZM1270.79 1061.35H1269.63L1274.72 1055.99L1283.86 1064.32C1283.32 1065.2 1281.89 1065.75 1279.58 1065.99C1278.27 1072.98 1276.3 1080 1273.68 1087.06C1271.13 1094.13 1267.7 1100.83 1263.38 1107.18C1259.06 1113.53 1253.54 1119.17 1246.83 1124.09L1245.68 1122.66C1250.69 1117.5 1254.89 1111.55 1258.29 1104.8C1261.68 1098.06 1264.38 1090.95 1266.39 1083.49C1268.39 1075.95 1269.86 1068.57 1270.79 1061.35ZM1293.7 1049.32C1295.01 1058.69 1296.86 1066.9 1299.25 1073.97C1301.72 1081.03 1304.65 1087.14 1308.04 1092.3C1311.44 1097.46 1315.1 1101.91 1319.04 1105.64C1323.05 1109.37 1327.18 1112.58 1331.42 1115.28L1330.95 1116.47C1328.95 1116.79 1327.18 1117.82 1325.63 1119.57C1324.17 1121.23 1323.05 1123.26 1322.28 1125.64C1318.19 1121.75 1314.52 1117.54 1311.28 1113.02C1308.12 1108.41 1305.27 1103.18 1302.72 1097.3C1300.25 1091.35 1298.17 1084.52 1296.47 1076.83C1294.78 1069.05 1293.43 1060.04 1292.42 1049.8L1293.7 1049.32ZM1293.7 1033.49V1124.09C1293.7 1126.47 1293.39 1128.57 1292.77 1130.4C1292.23 1132.22 1290.92 1133.69 1288.84 1134.8C1286.83 1135.91 1283.71 1136.71 1279.46 1137.18C1279.31 1135.68 1279 1134.33 1278.54 1133.14C1278.08 1132.03 1277.38 1131.11 1276.46 1130.4C1275.45 1129.53 1274.06 1128.81 1272.29 1128.26C1270.52 1127.7 1268.12 1127.22 1265.12 1126.83V1124.92C1265.12 1124.92 1265.81 1125 1267.2 1125.16C1268.66 1125.24 1270.4 1125.36 1272.41 1125.52C1274.41 1125.6 1276.3 1125.72 1278.08 1125.87C1279.85 1125.95 1281.08 1125.99 1281.78 1125.99C1283.01 1125.99 1283.82 1125.8 1284.21 1125.4C1284.59 1124.92 1284.79 1124.21 1284.79 1123.26V1028.73L1297.86 1030.28C1297.71 1031.07 1297.36 1031.74 1296.82 1032.3C1296.28 1032.86 1295.24 1033.25 1293.7 1033.49ZM1317.65 1048.85L1329.8 1056.59C1329.41 1057.14 1328.91 1057.54 1328.29 1057.78C1327.68 1058.02 1326.71 1058.02 1325.4 1057.78C1323.32 1059.68 1320.85 1061.86 1318 1064.32C1315.22 1066.79 1312.25 1069.29 1309.09 1071.83C1305.92 1074.29 1302.76 1076.55 1299.6 1078.61L1298.32 1077.3C1300.72 1074.52 1303.11 1071.43 1305.5 1068.02C1307.97 1064.52 1310.28 1061.11 1312.44 1057.78C1314.6 1054.36 1316.34 1051.39 1317.65 1048.85ZM1226.7 1035.75C1231.41 1037.02 1235.19 1038.57 1238.04 1040.4C1240.97 1042.14 1243.09 1044.01 1244.4 1045.99C1245.79 1047.9 1246.52 1049.72 1246.6 1051.47C1246.76 1053.21 1246.45 1054.68 1245.68 1055.87C1244.98 1056.98 1243.98 1057.66 1242.67 1057.9C1241.36 1058.13 1239.89 1057.66 1238.27 1056.47C1237.73 1054.25 1236.77 1051.94 1235.38 1049.56C1233.99 1047.1 1232.41 1044.76 1230.63 1042.54C1228.94 1040.32 1227.24 1038.37 1225.54 1036.7L1226.7 1035.75ZM1228.32 1098.97C1229.09 1098.97 1229.63 1098.89 1229.94 1098.73C1230.33 1098.49 1230.83 1097.78 1231.44 1096.59C1231.91 1095.71 1232.37 1094.88 1232.83 1094.09C1233.3 1093.29 1233.91 1092.1 1234.68 1090.52C1235.46 1088.85 1236.65 1086.39 1238.27 1083.14C1239.89 1079.88 1242.05 1075.44 1244.75 1069.8C1247.53 1064.09 1251.08 1056.78 1255.4 1047.9L1257.48 1048.49C1256.48 1051.27 1255.28 1054.4 1253.89 1057.9C1252.58 1061.39 1251.19 1065 1249.73 1068.73C1248.26 1072.38 1246.87 1075.91 1245.56 1079.33C1244.33 1082.74 1243.25 1085.71 1242.32 1088.25C1241.39 1090.71 1240.74 1092.46 1240.35 1093.49C1239.81 1095.32 1239.35 1097.1 1238.96 1098.85C1238.58 1100.6 1238.42 1102.18 1238.5 1103.61C1238.58 1105.36 1238.89 1107.14 1239.43 1108.97C1240.04 1110.79 1240.58 1112.86 1241.05 1115.16C1241.59 1117.46 1241.78 1120.2 1241.63 1123.37C1241.55 1125.91 1240.89 1127.94 1239.66 1129.45C1238.42 1130.95 1236.73 1131.71 1234.57 1131.71C1233.49 1131.71 1232.56 1131.19 1231.79 1130.16C1231.02 1129.21 1230.52 1127.78 1230.29 1125.87C1230.9 1121.91 1231.21 1118.33 1231.21 1115.16C1231.29 1111.91 1231.14 1109.25 1230.75 1107.18C1230.36 1105.04 1229.71 1103.69 1228.78 1103.14C1228.01 1102.58 1227.16 1102.18 1226.24 1101.95C1225.39 1101.63 1224.31 1101.43 1223 1101.35V1098.97C1223 1098.97 1223.34 1098.97 1224.04 1098.97C1224.73 1098.97 1225.5 1098.97 1226.35 1098.97C1227.28 1098.97 1227.93 1098.97 1228.32 1098.97Z" fill="#A9D4C9" fill-opacity="0.65"/>
<path d="M1381.17 1065.28C1381.17 1065.28 1381.71 1065.75 1382.79 1066.71C1383.87 1067.58 1385.18 1068.69 1386.73 1070.04C1388.27 1071.31 1389.66 1072.54 1390.89 1073.73C1390.58 1075 1389.58 1075.63 1387.88 1075.63H1338.94L1338.01 1072.18H1375.85L1381.17 1065.28ZM1379.9 1038.25C1379.9 1038.25 1380.44 1038.73 1381.52 1039.68C1382.68 1040.55 1384.03 1041.67 1385.57 1043.01C1387.11 1044.28 1388.46 1045.51 1389.62 1046.71C1389.39 1047.98 1388.39 1048.61 1386.61 1048.61H1340.56L1339.63 1045.16H1374.69L1379.9 1038.25ZM1388.58 1101.35C1391.2 1100.72 1394.83 1099.68 1399.46 1098.25C1404.08 1096.83 1409.33 1095.16 1415.19 1093.25C1421.06 1091.27 1427.07 1089.25 1433.24 1087.18L1433.82 1088.73C1429.73 1091.19 1424.68 1094.13 1418.66 1097.54C1412.72 1100.87 1405.7 1104.68 1397.6 1108.97C1397.3 1110.56 1396.52 1111.59 1395.29 1112.06L1388.58 1101.35ZM1355.72 1027.66C1359.34 1028.61 1362.16 1029.76 1364.16 1031.11C1366.17 1032.46 1367.56 1033.93 1368.33 1035.51C1369.18 1037.02 1369.49 1038.45 1369.26 1039.8C1369.02 1041.07 1368.48 1042.14 1367.64 1043.01C1366.79 1043.89 1365.71 1044.32 1364.4 1044.32C1363.16 1044.32 1361.89 1043.77 1360.58 1042.66C1360.5 1040.2 1359.84 1037.66 1358.61 1035.04C1357.38 1032.34 1355.99 1030.16 1354.44 1028.49L1355.72 1027.66ZM1430.93 1048.01L1436.25 1042.18L1445.97 1050.87C1445.51 1051.35 1444.89 1051.78 1444.12 1052.18C1443.35 1052.5 1442.31 1052.74 1441 1052.9C1440.61 1063.85 1440.15 1073.73 1439.61 1082.54C1439.07 1091.35 1438.37 1099.09 1437.52 1105.75C1436.68 1112.34 1435.67 1117.78 1434.52 1122.07C1433.36 1126.27 1431.97 1129.33 1430.35 1131.23C1428.5 1133.3 1426.34 1134.76 1423.87 1135.64C1421.48 1136.51 1418.7 1136.95 1415.54 1136.95C1415.54 1135.44 1415.39 1134.13 1415.08 1133.02C1414.85 1131.91 1414.31 1131.03 1413.46 1130.4C1412.45 1129.61 1410.8 1128.85 1408.48 1128.14C1406.24 1127.5 1403.85 1126.95 1401.31 1126.47L1401.42 1124.45C1403.27 1124.6 1405.32 1124.8 1407.56 1125.04C1409.87 1125.28 1412.03 1125.48 1414.04 1125.64C1416.04 1125.8 1417.51 1125.87 1418.43 1125.87C1419.67 1125.87 1420.59 1125.76 1421.21 1125.52C1421.83 1125.2 1422.52 1124.72 1423.29 1124.09C1424.53 1122.9 1425.64 1120.24 1426.65 1116.11C1427.65 1111.91 1428.5 1106.51 1429.19 1099.92C1429.89 1093.25 1430.5 1085.56 1431.04 1076.83C1431.58 1068.02 1432.01 1058.41 1432.32 1048.01H1430.93ZM1414.73 1032.42C1414.5 1033.05 1414.04 1033.61 1413.34 1034.09C1412.65 1034.56 1411.61 1034.8 1410.22 1034.8C1407.44 1041.7 1404.05 1048.09 1400.03 1053.97C1396.1 1059.76 1391.86 1064.64 1387.31 1068.61L1385.69 1067.42C1387.69 1064.25 1389.62 1060.52 1391.47 1056.23C1393.32 1051.94 1395.02 1047.38 1396.56 1042.54C1398.18 1037.62 1399.53 1032.7 1400.61 1027.78L1414.73 1032.42ZM1437.87 1048.01V1051.59H1399.11L1400.15 1048.01H1437.87ZM1398.3 1062.06C1402.7 1063.81 1406.21 1065.75 1408.83 1067.9C1411.45 1070.04 1413.3 1072.14 1414.38 1074.21C1415.54 1076.27 1416.12 1078.17 1416.12 1079.92C1416.2 1081.67 1415.81 1083.1 1414.96 1084.21C1414.19 1085.32 1413.15 1085.95 1411.84 1086.11C1410.6 1086.19 1409.25 1085.64 1407.79 1084.44C1407.48 1082.06 1406.75 1079.56 1405.59 1076.94C1404.51 1074.33 1403.2 1071.79 1401.65 1069.33C1400.19 1066.79 1398.65 1064.6 1397.03 1062.78L1398.3 1062.06ZM1383.95 1052.9C1383.72 1053.53 1383.26 1054.09 1382.56 1054.56C1381.87 1055.04 1380.9 1055.24 1379.67 1055.16C1378.36 1058.09 1376.54 1061.27 1374.23 1064.68C1371.99 1068.02 1369.56 1071.07 1366.94 1073.85H1364.74C1366.13 1070.44 1367.44 1066.47 1368.68 1061.94C1369.99 1057.34 1370.95 1053.17 1371.57 1049.44L1383.95 1052.9ZM1352.82 1133.38C1352.82 1133.61 1352.48 1133.97 1351.78 1134.45C1351.09 1135 1350.16 1135.44 1349.01 1135.76C1347.93 1136.15 1346.73 1136.35 1345.42 1136.35H1344.03V1082.18L1353.29 1086.35H1377.7V1089.8H1352.82V1133.38ZM1371.57 1086.35L1376.2 1081.11L1386.26 1089.09C1385.88 1089.48 1385.26 1089.92 1384.41 1090.4C1383.64 1090.79 1382.68 1091.11 1381.52 1091.35V1131.47C1381.52 1131.71 1381.1 1132.03 1380.25 1132.42C1379.4 1132.9 1378.4 1133.3 1377.24 1133.61C1376.16 1134.01 1375.12 1134.21 1374.12 1134.21H1372.73V1086.35H1371.57ZM1376.54 1104.33V1107.78H1347.96V1104.33H1376.54ZM1376.43 1123.02V1126.47H1348.2V1123.02H1376.43ZM1346.81 1050.4C1349.89 1052.22 1352.28 1054.13 1353.98 1056.11C1355.68 1058.02 1356.8 1059.84 1357.34 1061.59C1357.95 1063.33 1358.11 1064.96 1357.8 1066.47C1357.49 1067.9 1356.91 1069.01 1356.06 1069.8C1355.22 1070.59 1354.21 1070.95 1353.06 1070.87C1351.98 1070.79 1350.86 1070.2 1349.7 1069.09C1349.93 1066.15 1349.58 1063.02 1348.66 1059.68C1347.73 1056.27 1346.65 1053.37 1345.42 1050.99L1346.81 1050.4Z" fill="#A9D4C9" fill-opacity="0.65"/>
<path d="M1489.25 1040.63H1541.9L1547.45 1033.49C1547.45 1033.49 1548.03 1033.97 1549.19 1034.92C1550.34 1035.79 1551.73 1036.9 1553.35 1038.25C1554.97 1039.6 1556.44 1040.91 1557.75 1042.18C1557.44 1043.45 1556.4 1044.09 1554.62 1044.09H1490.17L1489.25 1040.63ZM1485.78 1067.9H1544.09L1549.88 1060.52C1549.88 1060.52 1550.23 1060.83 1550.92 1061.47C1551.62 1062.02 1552.5 1062.74 1553.58 1063.61C1554.66 1064.48 1555.82 1065.44 1557.05 1066.47C1558.29 1067.5 1559.41 1068.45 1560.41 1069.33C1560.1 1070.59 1559.06 1071.23 1557.29 1071.23H1486.7L1485.78 1067.9ZM1492.02 1053.73H1539.93L1545.37 1046.59C1545.37 1046.59 1545.95 1047.06 1547.1 1048.01C1548.26 1048.97 1549.61 1050.12 1551.15 1051.47C1552.77 1052.82 1554.16 1054.09 1555.32 1055.28C1555.09 1056.55 1554.12 1057.18 1552.43 1057.18H1492.95L1492.02 1053.73ZM1516.32 1028.49L1529.75 1029.8C1529.67 1030.59 1529.28 1031.31 1528.59 1031.94C1527.97 1032.5 1526.97 1032.93 1525.58 1033.25V1070.04H1516.32V1028.49ZM1501.17 1094.56H1544.33V1098.14H1501.17V1094.56ZM1501.4 1109.45H1544.21V1112.9H1501.4V1109.45ZM1462.4 1029.32C1466.88 1029.8 1470.5 1030.67 1473.28 1031.94C1476.13 1033.21 1478.25 1034.64 1479.64 1036.23C1481.03 1037.82 1481.84 1039.44 1482.07 1041.11C1482.3 1042.7 1482.07 1044.05 1481.38 1045.16C1480.76 1046.27 1479.8 1046.98 1478.49 1047.3C1477.25 1047.62 1475.79 1047.34 1474.09 1046.47C1473.47 1044.56 1472.47 1042.62 1471.08 1040.63C1469.69 1038.57 1468.15 1036.67 1466.45 1034.92C1464.76 1033.09 1463.06 1031.55 1461.36 1030.28L1462.4 1029.32ZM1454.19 1056.11C1458.58 1056.59 1462.13 1057.46 1464.83 1058.73C1467.53 1059.92 1469.5 1061.31 1470.73 1062.9C1472.04 1064.4 1472.78 1065.91 1472.93 1067.42C1473.16 1068.85 1472.93 1070.12 1472.24 1071.23C1471.54 1072.26 1470.54 1072.9 1469.23 1073.13C1468 1073.37 1466.61 1073.02 1465.06 1072.06C1464.52 1070.24 1463.6 1068.41 1462.29 1066.59C1461.05 1064.68 1459.63 1062.9 1458.01 1061.23C1456.39 1059.56 1454.77 1058.21 1453.15 1057.18L1454.19 1056.11ZM1461.13 1103.49C1461.9 1103.49 1462.44 1103.37 1462.75 1103.14C1463.14 1102.9 1463.64 1102.18 1464.25 1100.99C1464.64 1100.2 1465.03 1099.41 1465.41 1098.61C1465.87 1097.74 1466.45 1096.47 1467.15 1094.8C1467.92 1093.06 1469 1090.48 1470.39 1087.06C1471.85 1083.65 1473.78 1079.01 1476.17 1073.13C1478.64 1067.26 1481.84 1059.68 1485.78 1050.4L1487.86 1050.87C1487.01 1053.73 1485.97 1056.98 1484.73 1060.63C1483.58 1064.29 1482.38 1068.06 1481.15 1071.94C1479.99 1075.75 1478.87 1079.4 1477.79 1082.9C1476.71 1086.31 1475.75 1089.33 1474.9 1091.94C1474.13 1094.56 1473.59 1096.47 1473.28 1097.66C1472.82 1099.48 1472.39 1101.35 1472.01 1103.25C1471.7 1105.08 1471.58 1106.71 1471.66 1108.14C1471.66 1109.56 1471.85 1110.99 1472.24 1112.42C1472.62 1113.77 1473.05 1115.24 1473.51 1116.83C1474.05 1118.41 1474.47 1120.16 1474.78 1122.07C1475.09 1123.97 1475.21 1126.19 1475.13 1128.73C1475.05 1131.35 1474.32 1133.45 1472.93 1135.04C1471.62 1136.63 1469.85 1137.42 1467.61 1137.42C1466.53 1137.42 1465.57 1136.91 1464.72 1135.88C1463.95 1134.84 1463.44 1133.34 1463.21 1131.35C1463.83 1127.3 1464.14 1123.61 1464.14 1120.28C1464.22 1116.95 1464.06 1114.17 1463.68 1111.95C1463.29 1109.72 1462.63 1108.29 1461.71 1107.66C1461.01 1107.1 1460.2 1106.71 1459.28 1106.47C1458.43 1106.23 1457.35 1106.07 1456.04 1105.99V1103.49C1456.04 1103.49 1456.35 1103.49 1456.96 1103.49C1457.66 1103.49 1458.43 1103.49 1459.28 1103.49C1460.13 1103.49 1460.74 1103.49 1461.13 1103.49ZM1539.47 1080.63H1538.31L1542.82 1075.04L1553.47 1083.37C1553.16 1083.77 1552.54 1084.25 1551.62 1084.8C1550.77 1085.28 1549.76 1085.6 1548.61 1085.75V1125.52C1548.61 1127.66 1548.3 1129.57 1547.68 1131.23C1547.06 1132.98 1545.75 1134.37 1543.75 1135.4C1541.82 1136.43 1538.77 1137.15 1534.61 1137.54C1534.45 1136.11 1534.18 1134.84 1533.8 1133.73C1533.41 1132.62 1532.75 1131.75 1531.83 1131.11C1530.83 1130.32 1529.51 1129.64 1527.89 1129.09C1526.27 1128.61 1523.96 1128.18 1520.95 1127.78V1125.99C1520.95 1125.99 1521.61 1126.03 1522.92 1126.11C1524.31 1126.19 1525.93 1126.31 1527.78 1126.47C1529.71 1126.55 1531.52 1126.67 1533.22 1126.83C1534.91 1126.91 1536.07 1126.95 1536.69 1126.95C1537.85 1126.95 1538.58 1126.75 1538.89 1126.35C1539.27 1125.95 1539.47 1125.28 1539.47 1124.33V1080.63ZM1495.73 1076.35L1505.33 1080.63H1544.79V1083.97H1504.64V1134.09C1504.64 1134.41 1504.29 1134.84 1503.6 1135.4C1502.9 1135.95 1501.98 1136.39 1500.82 1136.71C1499.74 1137.11 1498.54 1137.3 1497.23 1137.3H1495.73V1076.35Z" fill="#A9D4C9" fill-opacity="0.65"/>
<path d="M1583.9 1115.52C1583.9 1115.83 1583.55 1116.27 1582.86 1116.83C1582.24 1117.3 1581.43 1117.74 1580.43 1118.14C1579.42 1118.53 1578.27 1118.73 1576.96 1118.73H1575.57V1035.75L1584.48 1039.92H1603.57V1043.49H1583.9V1115.52ZM1603.45 1100.16V1103.61H1580.08V1100.16H1603.45ZM1595.59 1039.92L1600.21 1034.68L1610.16 1042.66C1609.78 1043.13 1609.16 1043.61 1608.31 1044.09C1607.46 1044.48 1606.46 1044.8 1605.31 1045.04V1108.02C1605.31 1108.33 1604.88 1108.73 1604.03 1109.21C1603.26 1109.68 1602.34 1110.16 1601.26 1110.64C1600.18 1111.03 1599.1 1111.23 1598.02 1111.23H1596.74V1039.92H1595.59ZM1629.49 1050.28C1633.5 1051.39 1636.7 1052.7 1639.09 1054.21C1641.48 1055.71 1643.18 1057.3 1644.18 1058.97C1645.26 1060.63 1645.8 1062.18 1645.8 1063.61C1645.88 1064.96 1645.53 1066.11 1644.76 1067.06C1644.07 1068.02 1643.1 1068.57 1641.87 1068.73C1640.71 1068.81 1639.44 1068.37 1638.05 1067.42C1637.67 1065.59 1636.93 1063.69 1635.85 1061.71C1634.85 1059.64 1633.65 1057.7 1632.27 1055.87C1630.95 1054.05 1629.64 1052.5 1628.33 1051.23L1629.49 1050.28ZM1647.31 1100.99C1647.31 1100.99 1647.89 1101.47 1649.04 1102.42C1650.28 1103.37 1651.67 1104.52 1653.21 1105.87C1654.83 1107.22 1656.26 1108.53 1657.49 1109.8C1657.26 1111.07 1656.29 1111.71 1654.6 1111.71H1607.27L1606.35 1108.14H1641.87L1647.31 1100.99ZM1616.07 1036.35L1626.25 1041.11H1624.74V1048.13C1624.74 1048.13 1624.01 1048.13 1622.55 1048.13C1621.16 1048.13 1619 1048.13 1616.07 1048.13V1036.35ZM1622.66 1045.16L1624.74 1046.47V1093.37H1625.55L1622.43 1098.25L1612.71 1091.83C1613.33 1091.19 1614.18 1090.52 1615.26 1089.8C1616.34 1089.01 1617.3 1088.45 1618.15 1088.14L1616.07 1091.94V1045.16H1622.66ZM1648.12 1030.39C1647.66 1032.14 1646.15 1033.05 1643.61 1033.13C1642.53 1034.56 1641.21 1036.19 1639.67 1038.01C1638.13 1039.76 1636.74 1041.31 1635.51 1042.66H1631.8C1632.11 1040.75 1632.46 1038.33 1632.84 1035.4C1633.31 1032.38 1633.65 1029.8 1633.89 1027.66L1648.12 1030.39ZM1662.58 1089.8L1667.44 1084.68L1676.81 1092.78C1676.04 1093.65 1674.54 1094.25 1672.3 1094.56C1671.99 1102.02 1671.45 1108.41 1670.68 1113.73C1669.91 1118.97 1668.95 1123.22 1667.79 1126.47C1666.63 1129.64 1665.2 1131.95 1663.51 1133.38C1662.04 1134.64 1660.31 1135.56 1658.3 1136.11C1656.29 1136.75 1654.1 1137.07 1651.71 1137.07C1651.71 1135.72 1651.59 1134.49 1651.36 1133.38C1651.13 1132.26 1650.59 1131.39 1649.74 1130.76C1648.97 1130.12 1647.73 1129.49 1646.04 1128.85C1644.42 1128.3 1642.6 1127.86 1640.6 1127.54L1640.71 1125.64C1642.1 1125.72 1643.64 1125.84 1645.34 1125.99C1647.12 1126.15 1648.77 1126.31 1650.32 1126.47C1651.94 1126.55 1653.09 1126.59 1653.79 1126.59C1655.56 1126.59 1656.83 1126.19 1657.61 1125.4C1659.07 1124.13 1660.31 1120.48 1661.31 1114.45C1662.39 1108.41 1663.2 1100.2 1663.74 1089.8H1662.58ZM1665.24 1089.8V1093.37H1620.46V1089.8H1665.24ZM1659.11 1041.11V1044.56H1622.31V1041.11H1659.11ZM1654.25 1041.11L1659.11 1035.99L1668.6 1043.97C1668.21 1044.36 1667.67 1044.72 1666.98 1045.04C1666.28 1045.36 1665.36 1045.59 1664.2 1045.75C1663.97 1052.9 1663.58 1058.85 1663.04 1063.61C1662.58 1068.37 1661.89 1072.14 1660.96 1074.92C1660.11 1077.7 1658.96 1079.72 1657.49 1080.99C1656.1 1082.1 1654.48 1082.98 1652.63 1083.61C1650.78 1084.17 1648.74 1084.44 1646.5 1084.44C1646.5 1083.17 1646.38 1081.98 1646.15 1080.87C1645.92 1079.68 1645.46 1078.77 1644.76 1078.13C1644.07 1077.42 1642.95 1076.83 1641.41 1076.35C1639.94 1075.79 1638.36 1075.36 1636.66 1075.04V1073.13C1637.82 1073.21 1639.13 1073.33 1640.6 1073.49C1642.14 1073.57 1643.61 1073.69 1644.99 1073.85C1646.38 1073.93 1647.39 1073.97 1648 1073.97C1648.93 1073.97 1649.62 1073.93 1650.09 1073.85C1650.63 1073.69 1651.09 1073.37 1651.47 1072.9C1652.55 1071.86 1653.4 1068.77 1654.02 1063.61C1654.71 1058.37 1655.18 1050.87 1655.41 1041.11H1654.25Z" fill="#A9D4C9" fill-opacity="0.65"/>
</g>
<defs>
<filter id="filter0_f_7_3" x="92.3129" y="229.774" width="494.61" height="382.395" filterUnits="userSpaceOnUse" color-interpolation-filters="sRGB">
<feFlood flood-opacity="0" result="BackgroundImageFix"/>
<feBlend mode="normal" in="SourceGraphic" in2="BackgroundImageFix" result="shape"/>
<feGaussianBlur stdDeviation="8" result="effect1_foregroundBlur_7_3"/>
</filter>
<filter id="filter1_f_7_3" x="503.116" y="753.473" width="391.975" height="281.12" filterUnits="userSpaceOnUse" color-interpolation-filters="sRGB">
<feFlood flood-opacity="0" result="BackgroundImageFix"/>
<feBlend mode="normal" in="SourceGraphic" in2="BackgroundImageFix" result="shape"/>
<feGaussianBlur stdDeviation="16" result="effect1_foregroundBlur_7_3"/>
</filter>
<filter id="filter2_f_7_3" x="617.85" y="302.143" width="252.818" height="182.715" filterUnits="userSpaceOnUse" color-interpolation-filters="sRGB">
<feFlood flood-opacity="0" result="BackgroundImageFix"/>
<feBlend mode="normal" in="SourceGraphic" in2="BackgroundImageFix" result="shape"/>
<feGaussianBlur stdDeviation="16" result="effect1_foregroundBlur_7_3"/>
</filter>
<filter id="filter3_f_7_3" x="63.6526" y="739.949" width="284.829" height="197.665" filterUnits="userSpaceOnUse" color-interpolation-filters="sRGB">
<feFlood flood-opacity="0" result="BackgroundImageFix"/>
<feBlend mode="normal" in="SourceGraphic" in2="BackgroundImageFix" result="shape"/>
<feGaussianBlur stdDeviation="16" result="effect1_foregroundBlur_7_3"/>
</filter>
<filter id="filter4_f_7_3" x="135.681" y="556.82" width="811.15" height="135.007" filterUnits="userSpaceOnUse" color-interpolation-filters="sRGB">
<feFlood flood-opacity="0" result="BackgroundImageFix"/>
<feBlend mode="normal" in="SourceGraphic" in2="BackgroundImageFix" result="shape"/>
<feGaussianBlur stdDeviation="8" result="effect1_foregroundBlur_7_3"/>
</filter>
<radialGradient id="paint0_radial_7_3" cx="0" cy="0" r="1" gradientTransform="matrix(461.797 320.103 -318.374 464.287 359.73 504.192)" gradientUnits="userSpaceOnUse">
<stop stop-color="#F2FFFB"/>
<stop offset="0.18" stop-color="#DDF7EF"/>
<stop offset="0.42" stop-color="#A7DED0"/>
<stop offset="0.68" stop-color="#6EB9A8"/>
<stop offset="1" stop-color="#3F8E7E"/>
</radialGradient>
<linearGradient id="paint1_linear_7_3" x1="15.9754" y1="183.038" x2="776.566" y2="928.63" gradientUnits="userSpaceOnUse">
<stop stop-color="#F5FFFC" stop-opacity="0.8"/>
<stop offset="0.22" stop-color="#BDE8DB" stop-opacity="0.45"/>
<stop offset="0.55" stop-color="#6FB8A8" stop-opacity="0.08"/>
<stop offset="1" stop-color="#245E53" stop-opacity="0.42"/>
</linearGradient>
<radialGradient id="paint2_radial_7_3" cx="0" cy="0" r="1" gradientTransform="matrix(282.879 2.90057 -2.18497 215.757 264.145 396.178)" gradientUnits="userSpaceOnUse">
<stop stop-color="white" stop-opacity="0.95"/>
<stop offset="0.45" stop-color="#E7FFF8" stop-opacity="0.45"/>
<stop offset="1" stop-color="#E7FFF8" stop-opacity="0"/>
</radialGradient>
<linearGradient id="paint3_linear_7_3" x1="109.705" y1="249.725" x2="700.528" y2="882.769" gradientUnits="userSpaceOnUse">
<stop stop-color="white" stop-opacity="0.85"/>
<stop offset="0.2" stop-color="#EAFFF8" stop-opacity="0.45"/>
<stop offset="0.48" stop-color="#8ED3C2" stop-opacity="0.15"/>
<stop offset="0.75" stop-color="#2E7A6A" stop-opacity="0.3"/>
<stop offset="1" stop-color="#163F37" stop-opacity="0.65"/>
</linearGradient>
<clipPath id="clip0_7_3">
<rect width="3756" height="1358" fill="white"/>
</clipPath>
</defs>
</svg>
